<?xml version="1.0" encoding="UTF-8"?> <svg xmlns="http://www.w3.org/2000/svg" viewBox="0 0 57.12 13.16"><defs><style>.cls-1{fill:#fdfdfe;}</style></defs><g id="Слой_2" data-name="Слой 2"><g id="Layer_1" data-name="Layer 1"><path class="cls-1" d="M3.25,1.37A.69.69,0,0,0,3.16,1,1.55,1.55,0,0,0,2.92.7H2.23a3.18,3.18,0,0,0,.1.52,1.17,1.17,0,0,0,.14.35.52.52,0,0,0,.17.19.37.37,0,0,0,.21.06.45.45,0,0,0,.16,0,.24.24,0,0,0,.14-.1.5.5,0,0,0,.1-.31Zm.33.12A.75.75,0,0,1,3.4,2a.78.78,0,0,1-.24.16.53.53,0,0,1-.28,0,.64.64,0,0,1-.36-.09.68.68,0,0,1-.26-.27A3,3,0,0,1,2,.71a.82.82,0,0,0-.22,0,.49.49,0,0,0-.21.08A.4.4,0,0,0,1.38,1a.45.45,0,0,0,0,.25.85.85,0,0,0,.08.42A2.11,2.11,0,0,0,1.59,2l-.29.16a2.78,2.78,0,0,1-.22-.42A1.68,1.68,0,0,1,1,1.15.74.74,0,0,1,1,.79.64.64,0,0,1,1.26.5,1.23,1.23,0,0,1,2,.29H3.52V.63l-.3,0h0a2.26,2.26,0,0,1,.25.38,1,1,0,0,1,.11.44ZM3.52,3.11H1.05V2.7H3.51Zm-3-.2a.32.32,0,0,1-.08.2.16.16,0,0,1-.08.06.15.15,0,0,1-.11,0,.15.15,0,0,1-.11,0,.24.24,0,0,1-.09-.06A.37.37,0,0,1,0,2.91.38.38,0,0,1,.07,2.7l.1-.07a.2.2,0,0,1,.11,0,.15.15,0,0,1,.11,0,.16.16,0,0,1,.08.06.27.27,0,0,1,.07.21m3,1.7a1.43,1.43,0,0,1-.09.5,1.52,1.52,0,0,1-.24.41L3,5.32A1.68,1.68,0,0,0,3.17,5a.89.89,0,0,0,.09-.39.5.5,0,0,0-.12-.37A.27.27,0,0,0,3,4.13l-.15,0a.26.26,0,0,0-.17.05.37.37,0,0,0-.12.13,1.62,1.62,0,0,0-.1.18,1.8,1.8,0,0,1-.08.21,2.77,2.77,0,0,1-.1.26,1.2,1.2,0,0,1-.15.24.67.67,0,0,1-.2.17.51.51,0,0,1-.27.06.87.87,0,0,1-.28-.05.62.62,0,0,1-.22-.17A.72.72,0,0,1,1,4.91.85.85,0,0,1,1,4.55a.94.94,0,0,1,.08-.43,1.68,1.68,0,0,1,.2-.34L1.53,4a1.32,1.32,0,0,0-.16.25.8.8,0,0,0-.06.3.49.49,0,0,0,.11.35L1.53,5a.35.35,0,0,0,.14,0,.27.27,0,0,0,.15,0,.32.32,0,0,0,.11-.12A.76.76,0,0,0,2,4.65c0-.06,0-.13.08-.2s.07-.18.1-.27a1.38,1.38,0,0,1,.14-.24.91.91,0,0,1,.21-.18.73.73,0,0,1,.3-.07.71.71,0,0,1,.28.06.69.69,0,0,1,.24.18,1,1,0,0,1,.16.28,1,1,0,0,1,.05.39Zm0,2.14a1.37,1.37,0,0,1-.09.49,1.52,1.52,0,0,1-.24.41L3,7.45a1.45,1.45,0,0,0,.2-.34.86.86,0,0,0,.09-.39.52.52,0,0,0-.12-.37A.27.27,0,0,0,3,6.26l-.15,0a.34.34,0,0,0-.17,0,.49.49,0,0,0-.12.13,1.62,1.62,0,0,0-.1.18,1.8,1.8,0,0,1-.08.21,2,2,0,0,1-.1.26,1,1,0,0,1-.15.24.55.55,0,0,1-.2.17.58.58,0,0,1-.26.06.71.71,0,0,1-.28-.06.6.6,0,0,1-.22-.17A.76.76,0,0,1,1,7,1.12,1.12,0,0,1,1,6.68a1.06,1.06,0,0,1,.08-.43,1.45,1.45,0,0,1,.2-.34l.27.21a1.4,1.4,0,0,0-.16.26.8.8,0,0,0-.06.3A.49.49,0,0,0,1.43,7l.11.08a.32.32,0,0,0,.14,0,.3.3,0,0,0,.15,0A.43.43,0,0,0,1.94,7,1,1,0,0,0,2,6.79a1.19,1.19,0,0,0,.08-.2l.11-.27a1,1,0,0,1,.14-.24.91.91,0,0,1,.21-.18.73.73,0,0,1,.29-.07.72.72,0,0,1,.29.06.58.58,0,0,1,.23.18.78.78,0,0,1,.16.28,1,1,0,0,1,.05.39Zm0,2.69a.59.59,0,0,1-.05.32.7.7,0,0,1-.19.26,1.23,1.23,0,0,1-.72.18H1.05V9.79H2.56a1,1,0,0,0,.51-.11.61.61,0,0,0,.12-.16.34.34,0,0,0,0-.2A.55.55,0,0,0,3.12,9a1.43,1.43,0,0,0-.32-.33H1.05V8.23H3.51v.33l-.38,0v0A1.83,1.83,0,0,1,3.45,9a.77.77,0,0,1,.13.46ZM1.77,12.5v-.58a1,1,0,0,0-.16-.6.69.69,0,0,0-.22-.16.63.63,0,0,0-.27,0,.46.46,0,0,0-.26,0,.53.53,0,0,0-.2.16,1.18,1.18,0,0,0-.14.6v.56Zm1.75.41H.18V11.86a2.5,2.5,0,0,1,.05-.47A1,1,0,0,1,.39,11a1,1,0,0,1,.29-.24,1.12,1.12,0,0,1,.44-.09,1,1,0,0,1,.63.21,1.06,1.06,0,0,1,.32.55l1.45-.85v.48l-1.41.8v.62H3.52Z"></path><path class="cls-1" d="M30.13,6.37c-1.23-.82-2.54-.45-2.78,0a41.3,41.3,0,0,0,0,4.85c.07.75.29,1.09.84,1.16l.72,0v.52H23.36v-.51l.38-.05c.57-.07.77-.41.84-1.15a41.64,41.64,0,0,0,0-5.24c-.07-.75-.3-1.09-.84-1.16l-.38,0V4.4l4-.77-.05,2.09c.93-2.15,2.79-2.45,3.79-1.83Zm26.53.07-.45.11C55.73,5,55,4.29,53.89,4.29a1.25,1.25,0,0,0-1.25,1.34c0,.79.59,1.2,2.3,1.85s2.18,1.32,2.18,2.59c0,1.91-1.46,3.06-3.86,3.06a9.24,9.24,0,0,1-3.17-.56L50,9.94l.45-.12c.66,1.84,1.52,2.5,2.66,2.5a1.31,1.31,0,0,0,1.49-1.41c0-.72-.41-1.13-1.95-1.68S50.22,8.1,50.22,6.51s1.36-2.87,3.63-2.87a7.22,7.22,0,0,1,2.72.47Zm-12.83.88,2.81-.06c0-1.24-.18-3-1.2-3s-1.59,1.71-1.61,3.1M41,8.48a4.53,4.53,0,0,1,4.67-4.83c2.52,0,3.72,1.86,3.74,4.31H43.83c-.07,2.23,1.06,3.86,3.22,3.86a3.07,3.07,0,0,0,2-.66l.25.32a4.7,4.7,0,0,1-8.3-3ZM18.65,4.22C17.31,4.22,17,6,17,8.39s.59,4.17,1.81,4.17,1.7-1.79,1.7-4.17-.62-4.17-1.82-4.17Zm.14-.59c3,0,4.49,2,4.49,4.73a4.45,4.45,0,0,1-4.7,4.77c-3,0-4.52-2-4.52-4.73a4.48,4.48,0,0,1,4.72-4.77Zm-3.38.2L14.79,4c-.57-1.8-1.44-2.85-3.06-2.85H9.64c-.09,1.18-.14,3.11-.11,5.12l1.4,0c.93,0,1.32-.73,1.54-1.75H13V8.76h-.52c-.22-1-.61-1.72-1.56-1.77L9.5,7c0,1.54.07,2.83.12,3.6.09,1.14.41,1.64,1.23,1.77l.7.07v.52H4.77v-.53l.57-.06c.8-.12,1.14-.62,1.23-1.77a62.18,62.18,0,0,0,0-8C6.48,1.46,6.16,1,5.34.85L4.78.78V.28H15.35ZM35.26,12.5a3.08,3.08,0,0,1-.68-.07c-.07-.86-.12-4.42-.09-7.55a2.64,2.64,0,0,1,.93-.16c1.31,0,2,1.54,2,3.45,0,2.47-.92,4.33-2.21,4.33m1.38-8.75a4.62,4.62,0,0,0-2.18.56c0-1.95,0-3.64.07-4.31l-4,.78v.36l.38.05c.57.07.77.41.84,1.15.12,1.45.12,9.14,0,10.36a15.79,15.79,0,0,0,3.43.43A4.73,4.73,0,0,0,40.29,8c0-2.49-1.56-4.28-3.65-4.28"></path></g></g></svg> 