<?xml version="1.0" encoding="UTF-8"?>
<svg xmlns="http://www.w3.org/2000/svg" width="1971" height="344" viewBox="0 0 1971 344" fill="none">
  <title>Forbes Experience logo</title>
  <g fill-rule="evenodd" clip-rule="evenodd" shape-rendering="geometricPrecision">
    <path fill="#FF8800" d="M 191.00 339.50 L 7.00 339.50 L 4.50 337.00 L 4.50 335.00 L 3.50 334.00 L 3.50 332.00 L 4.50 331.00 L 4.50 327.00 L 5.50 326.00 L 5.50 325.00 L 6.00 324.50 L 7.00 324.50 L 8.00 323.50 L 11.00 323.50 L 12.00 322.50 L 21.00 322.50 L 22.00 321.50 L 27.00 321.50 L 28.00 320.50 L 30.00 320.50 L 31.00 319.50 L 32.00 319.50 L 34.00 317.50 L 35.00 317.50 L 36.00 316.50 L 37.00 316.50 L 38.00 315.50 L 39.00 315.50 L 47.50 307.00 L 47.50 305.00 L 49.50 303.00 L 49.50 302.00 L 50.50 301.00 L 50.50 299.00 L 51.50 298.00 L 51.50 295.00 L 52.50 294.00 L 52.50 291.00 L 53.50 290.00 L 53.50 286.00 L 54.50 285.00 L 54.50 275.00 L 55.50 274.00 L 55.50 261.00 L 56.50 260.00 L 56.50 243.00 L 57.50 242.00 L 57.50 224.00 L 58.50 223.00 L 58.50 120.00 L 57.50 119.00 L 57.50 101.00 L 56.50 100.00 L 56.50 81.00 L 55.50 80.00 L 55.50 67.00 L 54.50 66.00 L 54.50 59.00 L 53.50 58.00 L 53.50 55.00 L 52.50 54.00 L 52.50 50.00 L 51.50 49.00 L 51.50 47.00 L 50.50 46.00 L 50.50 44.00 L 49.50 43.00 L 49.50 42.00 L 48.50 41.00 L 48.50 40.00 L 47.50 39.00 L 47.50 38.00 L 45.50 36.00 L 45.50 35.00 L 44.00 33.50 L 43.00 33.50 L 38.00 28.50 L 37.00 28.50 L 36.00 27.50 L 35.00 27.50 L 33.00 25.50 L 31.00 25.50 L 30.00 24.50 L 28.00 24.50 L 27.00 23.50 L 21.00 23.50 L 20.00 22.50 L 10.00 22.50 L 9.00 21.50 L 7.00 21.50 L 5.50 20.00 L 5.50 19.00 L 4.50 18.00 L 4.50 12.00 L 3.50 11.00 L 4.50 10.00 L 4.50 9.00 L 7.00 6.50 L 11.00 6.50 L 12.00 5.50 L 13.00 5.50 L 14.00 6.50 L 15.00 5.50 L 16.00 6.50 L 64.00 6.50 L 65.00 5.50 L 82.00 5.50 L 83.00 6.50 L 95.00 6.50 L 96.00 5.50 L 97.00 5.50 L 98.00 6.50 L 298.00 6.50 L 299.00 5.50 L 300.00 6.50 L 303.00 6.50 L 304.50 8.00 L 304.50 13.00 L 305.50 14.00 L 305.50 62.00 L 306.50 63.00 L 306.50 94.00 L 307.50 95.00 L 307.50 97.00 L 306.50 98.00 L 306.50 99.00 L 304.00 101.50 L 303.00 101.50 L 302.00 102.50 L 299.00 102.50 L 298.00 103.50 L 296.00 103.50 L 295.00 104.50 L 288.00 104.50 L 286.50 103.00 L 286.50 101.00 L 285.50 100.00 L 285.50 98.00 L 284.50 97.00 L 284.50 96.00 L 283.50 95.00 L 283.50 93.00 L 282.50 92.00 L 282.50 91.00 L 281.50 90.00 L 281.50 89.00 L 280.50 88.00 L 280.50 86.00 L 278.50 84.00 L 278.50 82.00 L 277.50 81.00 L 277.50 80.00 L 276.50 79.00 L 276.50 78.00 L 275.50 77.00 L 275.50 76.00 L 274.50 75.00 L 274.50 74.00 L 273.50 73.00 L 273.50 72.00 L 272.50 71.00 L 272.50 70.00 L 270.50 68.00 L 270.50 67.00 L 268.50 65.00 L 268.50 64.00 L 263.50 59.00 L 263.50 58.00 L 263.00 57.50 L 262.00 57.50 L 261.50 57.00 L 261.50 56.00 L 252.00 46.50 L 251.00 46.50 L 247.00 42.50 L 246.00 42.50 L 245.00 41.50 L 244.00 41.50 L 242.00 39.50 L 241.00 39.50 L 240.00 38.50 L 239.00 38.50 L 238.00 37.50 L 236.00 37.50 L 234.00 35.50 L 232.00 35.50 L 231.00 34.50 L 228.00 34.50 L 227.00 33.50 L 225.00 33.50 L 224.00 32.50 L 220.00 32.50 L 219.00 31.50 L 210.00 31.50 L 209.00 30.50 L 146.00 30.50 L 144.50 32.00 L 144.50 33.00 L 143.50 34.00 L 143.50 44.00 L 142.50 45.00 L 142.50 68.00 L 141.50 69.00 L 141.50 94.00 L 140.50 95.00 L 140.50 162.00 L 142.00 163.50 L 154.00 163.50 L 155.00 162.50 L 177.00 162.50 L 178.00 161.50 L 189.00 161.50 L 190.00 160.50 L 192.00 160.50 L 193.00 159.50 L 194.00 159.50 L 195.00 158.50 L 196.00 158.50 L 197.00 157.50 L 198.00 157.50 L 199.00 156.50 L 200.00 156.50 L 202.00 154.50 L 203.00 154.50 L 208.50 149.00 L 208.50 148.00 L 212.50 144.00 L 212.50 143.00 L 213.50 142.00 L 213.50 141.00 L 214.50 140.00 L 214.50 139.00 L 215.50 138.00 L 215.50 137.00 L 216.50 136.00 L 216.50 134.00 L 217.50 133.00 L 217.50 132.00 L 218.50 131.00 L 218.50 129.00 L 219.50 128.00 L 219.50 125.00 L 220.50 124.00 L 220.50 121.00 L 221.50 120.00 L 221.50 119.00 L 223.00 117.50 L 224.00 117.50 L 225.00 116.50 L 236.00 116.50 L 237.00 117.50 L 238.00 117.50 L 239.50 119.00 L 239.50 227.00 L 238.50 228.00 L 238.50 229.00 L 238.00 229.50 L 236.00 229.50 L 235.00 230.50 L 225.00 230.50 L 224.00 229.50 L 223.00 229.50 L 221.50 228.00 L 221.50 226.00 L 220.50 225.00 L 220.50 222.00 L 219.50 221.00 L 219.50 219.00 L 218.50 218.00 L 218.50 216.00 L 217.50 215.00 L 217.50 213.00 L 216.50 212.00 L 216.50 210.00 L 214.50 208.00 L 214.50 206.00 L 212.50 204.00 L 212.50 203.00 L 210.50 201.00 L 210.50 200.00 L 208.50 198.00 L 208.50 197.00 L 207.00 195.50 L 206.00 195.50 L 205.00 193.50 L 204.00 193.50 L 202.00 191.50 L 201.00 191.50 L 199.00 189.50 L 198.00 189.50 L 197.00 188.50 L 196.00 188.50 L 195.00 187.50 L 193.00 187.50 L 192.00 186.50 L 190.00 186.50 L 189.00 185.50 L 187.00 185.50 L 186.00 184.50 L 178.00 184.50 L 177.00 183.50 L 141.00 183.50 L 140.50 184.00 L 140.50 217.00 L 141.50 218.00 L 141.50 236.00 L 142.50 237.00 L 142.50 260.00 L 143.50 261.00 L 143.50 275.00 L 144.50 276.00 L 144.50 286.00 L 145.50 287.00 L 145.50 291.00 L 146.50 292.00 L 146.50 295.00 L 147.50 296.00 L 147.50 297.00 L 148.50 298.00 L 148.50 301.00 L 149.50 302.00 L 149.50 304.00 L 151.50 306.00 L 151.50 307.00 L 162.00 317.50 L 163.00 317.50 L 164.00 318.50 L 165.00 318.50 L 166.00 319.50 L 167.00 319.50 L 168.00 320.50 L 170.00 320.50 L 171.00 321.50 L 177.00 321.50 L 178.00 322.50 L 192.00 322.50 L 193.00 323.50 L 196.00 323.50 L 198.50 326.00 L 198.50 327.00 L 199.50 328.00 L 199.50 336.00 L 197.00 338.50 L 192.00 338.50 L 191.00 339.50 Z"/>
    <path fill="#FFFFFF" d="M 1169.00 333.50 L 1166.00 333.50 L 1165.00 332.50 L 1159.00 332.50 L 1158.00 333.50 L 1133.00 333.50 L 1130.50 331.00 L 1130.50 330.00 L 1129.50 329.00 L 1129.50 325.00 L 1128.50 324.00 L 1128.50 321.00 L 1127.50 320.00 L 1127.50 312.00 L 1126.50 311.00 L 1126.50 299.00 L 1125.50 298.00 L 1125.50 290.00 L 1124.50 289.00 L 1124.50 284.00 L 1123.50 283.00 L 1123.50 280.00 L 1122.50 279.00 L 1122.50 277.00 L 1121.50 276.00 L 1121.50 274.00 L 1120.50 273.00 L 1120.50 272.00 L 1118.50 270.00 L 1118.50 269.00 L 1116.50 267.00 L 1116.50 266.00 L 1116.00 265.50 L 1115.00 265.50 L 1113.00 263.50 L 1112.00 263.50 L 1111.00 262.50 L 1109.00 262.50 L 1108.00 261.50 L 1107.00 261.50 L 1106.00 260.50 L 1104.00 260.50 L 1103.00 259.50 L 1055.00 259.50 L 1054.50 260.00 L 1054.50 331.00 L 1053.00 332.50 L 1014.00 332.50 L 1012.50 331.00 L 1012.50 324.00 L 1013.50 323.00 L 1013.50 164.00 L 1012.50 163.00 L 1012.50 147.00 L 1013.50 146.00 L 1013.50 145.00 L 1014.00 144.50 L 1016.00 144.50 L 1017.00 143.50 L 1106.00 143.50 L 1107.00 144.50 L 1123.00 144.50 L 1124.00 145.50 L 1128.00 145.50 L 1129.00 146.50 L 1132.00 146.50 L 1133.00 147.50 L 1135.00 147.50 L 1137.00 149.50 L 1138.00 149.50 L 1139.00 150.50 L 1140.00 150.50 L 1141.00 151.50 L 1142.00 151.50 L 1144.00 153.50 L 1145.00 153.50 L 1146.00 154.50 L 1147.00 154.50 L 1150.00 157.50 L 1151.00 157.50 L 1155.50 162.00 L 1155.50 163.00 L 1158.50 166.00 L 1158.50 167.00 L 1160.50 169.00 L 1160.50 170.00 L 1161.50 171.00 L 1161.50 172.00 L 1162.50 173.00 L 1162.50 174.00 L 1163.50 175.00 L 1163.50 177.00 L 1164.50 178.00 L 1164.50 181.00 L 1165.50 182.00 L 1165.50 185.00 L 1166.50 186.00 L 1166.50 193.00 L 1167.50 194.00 L 1167.50 200.00 L 1166.50 201.00 L 1166.50 208.00 L 1165.50 209.00 L 1165.50 212.00 L 1164.50 213.00 L 1164.50 216.00 L 1163.50 217.00 L 1163.50 219.00 L 1162.50 220.00 L 1162.50 221.00 L 1161.50 222.00 L 1161.50 223.00 L 1160.50 224.00 L 1160.50 225.00 L 1159.50 226.00 L 1159.50 227.00 L 1157.50 229.00 L 1157.50 230.00 L 1151.00 236.50 L 1150.00 236.50 L 1148.00 238.50 L 1147.00 238.50 L 1145.00 240.50 L 1143.00 240.50 L 1140.50 243.00 L 1140.50 244.00 L 1142.00 245.50 L 1144.00 245.50 L 1145.00 246.50 L 1146.00 246.50 L 1156.50 257.00 L 1156.50 258.00 L 1158.50 260.00 L 1158.50 261.00 L 1159.50 262.00 L 1159.50 264.00 L 1160.50 265.00 L 1160.50 266.00 L 1161.50 267.00 L 1161.50 269.00 L 1162.50 270.00 L 1162.50 273.00 L 1163.50 274.00 L 1163.50 280.00 L 1164.50 281.00 L 1164.50 290.00 L 1165.50 291.00 L 1165.50 304.00 L 1166.50 305.00 L 1166.50 315.00 L 1167.50 316.00 L 1167.50 321.00 L 1168.50 322.00 L 1168.50 325.00 L 1169.50 326.00 L 1169.50 327.00 L 1170.50 328.00 L 1170.50 329.00 L 1171.50 330.00 L 1171.50 332.00 L 1171.00 332.50 L 1170.00 332.50 L 1169.00 333.50 Z
M 1596.00 333.50 L 1594.00 333.50 L 1593.00 332.50 L 1590.00 332.50 L 1589.00 333.50 L 1562.00 333.50 L 1561.00 332.50 L 1558.00 332.50 L 1556.50 331.00 L 1556.50 330.00 L 1554.50 328.00 L 1554.50 327.00 L 1553.50 326.00 L 1553.50 325.00 L 1551.50 323.00 L 1551.50 322.00 L 1550.50 321.00 L 1550.50 320.00 L 1548.50 318.00 L 1548.50 317.00 L 1547.50 316.00 L 1547.50 315.00 L 1545.50 313.00 L 1545.50 312.00 L 1544.50 311.00 L 1544.50 310.00 L 1542.50 308.00 L 1542.50 307.00 L 1541.50 306.00 L 1541.50 305.00 L 1539.50 303.00 L 1539.50 302.00 L 1538.50 301.00 L 1538.50 300.00 L 1536.50 298.00 L 1536.50 297.00 L 1535.50 296.00 L 1535.50 295.00 L 1533.50 293.00 L 1533.50 292.00 L 1531.50 290.00 L 1531.50 289.00 L 1530.50 288.00 L 1530.50 287.00 L 1528.50 285.00 L 1528.50 284.00 L 1527.50 283.00 L 1527.50 282.00 L 1525.50 280.00 L 1525.50 279.00 L 1524.50 278.00 L 1524.50 277.00 L 1522.50 275.00 L 1522.50 274.00 L 1520.50 272.00 L 1520.50 271.00 L 1519.50 270.00 L 1519.50 269.00 L 1518.50 268.00 L 1518.50 267.00 L 1516.50 265.00 L 1516.50 264.00 L 1514.50 262.00 L 1514.50 261.00 L 1513.50 260.00 L 1513.50 259.00 L 1511.50 257.00 L 1511.50 256.00 L 1509.50 254.00 L 1509.50 253.00 L 1508.50 252.00 L 1508.50 251.00 L 1506.50 249.00 L 1506.50 248.00 L 1505.50 247.00 L 1505.50 246.00 L 1503.50 244.00 L 1503.50 243.00 L 1502.50 242.00 L 1502.50 241.00 L 1500.50 239.00 L 1500.50 238.00 L 1498.50 236.00 L 1498.50 235.00 L 1497.50 234.00 L 1497.50 233.00 L 1496.50 232.00 L 1496.50 231.00 L 1494.50 229.00 L 1494.50 228.00 L 1492.50 226.00 L 1492.50 225.00 L 1491.50 224.00 L 1491.50 223.00 L 1490.50 222.00 L 1490.50 221.00 L 1488.50 219.00 L 1488.50 218.00 L 1486.50 216.00 L 1486.50 215.00 L 1484.50 213.00 L 1484.50 212.00 L 1483.00 210.50 L 1482.50 211.00 L 1482.50 212.00 L 1481.50 213.00 L 1481.50 235.00 L 1482.50 236.00 L 1482.50 320.00 L 1481.50 321.00 L 1481.50 322.00 L 1482.50 323.00 L 1482.50 331.00 L 1481.00 332.50 L 1472.00 332.50 L 1471.00 333.50 L 1461.00 333.50 L 1460.00 332.50 L 1452.00 332.50 L 1451.00 333.50 L 1445.00 333.50 L 1443.50 332.00 L 1443.50 145.00 L 1444.00 144.50 L 1445.00 144.50 L 1446.00 143.50 L 1449.00 143.50 L 1450.00 144.50 L 1471.00 144.50 L 1472.00 143.50 L 1476.00 143.50 L 1477.00 144.50 L 1483.00 144.50 L 1484.00 145.50 L 1485.00 145.50 L 1486.50 147.00 L 1486.50 148.00 L 1487.50 149.00 L 1487.50 150.00 L 1488.50 151.00 L 1488.50 152.00 L 1489.50 153.00 L 1489.50 154.00 L 1491.50 156.00 L 1491.50 157.00 L 1493.50 159.00 L 1493.50 160.00 L 1494.50 161.00 L 1494.50 162.00 L 1496.50 164.00 L 1496.50 165.00 L 1497.50 166.00 L 1497.50 167.00 L 1499.50 169.00 L 1499.50 170.00 L 1500.50 171.00 L 1500.50 172.00 L 1502.50 174.00 L 1502.50 175.00 L 1503.50 176.00 L 1503.50 177.00 L 1505.50 179.00 L 1505.50 180.00 L 1506.50 181.00 L 1506.50 182.00 L 1508.50 184.00 L 1508.50 185.00 L 1509.50 186.00 L 1509.50 187.00 L 1511.50 189.00 L 1511.50 190.00 L 1512.50 191.00 L 1512.50 192.00 L 1514.50 194.00 L 1514.50 195.00 L 1516.50 197.00 L 1516.50 198.00 L 1518.50 200.00 L 1518.50 201.00 L 1519.50 202.00 L 1519.50 203.00 L 1521.50 205.00 L 1521.50 206.00 L 1522.50 207.00 L 1522.50 208.00 L 1524.50 210.00 L 1524.50 211.00 L 1526.50 213.00 L 1526.50 214.00 L 1527.50 215.00 L 1527.50 216.00 L 1528.50 217.00 L 1528.50 218.00 L 1530.50 220.00 L 1530.50 221.00 L 1532.50 223.00 L 1532.50 224.00 L 1533.50 225.00 L 1533.50 226.00 L 1535.50 228.00 L 1535.50 229.00 L 1537.50 231.00 L 1537.50 232.00 L 1538.50 233.00 L 1538.50 234.00 L 1540.50 236.00 L 1540.50 237.00 L 1541.50 238.00 L 1541.50 239.00 L 1543.50 241.00 L 1543.50 242.00 L 1545.50 244.00 L 1545.50 245.00 L 1546.50 246.00 L 1546.50 247.00 L 1548.50 249.00 L 1548.50 250.00 L 1549.50 251.00 L 1549.50 252.00 L 1550.50 253.00 L 1550.50 254.00 L 1551.50 255.00 L 1551.50 256.00 L 1554.50 259.00 L 1554.50 260.00 L 1556.50 262.00 L 1556.50 263.00 L 1557.50 264.00 L 1557.50 265.00 L 1559.00 266.50 L 1560.00 266.50 L 1560.50 266.00 L 1560.50 145.00 L 1561.00 144.50 L 1563.00 144.50 L 1564.00 143.50 L 1596.00 143.50 L 1597.00 144.50 L 1598.00 144.50 L 1599.50 146.00 L 1599.50 331.00 L 1598.00 332.50 L 1597.00 332.50 L 1596.00 333.50 Z
M 710.00 333.50 L 709.00 332.50 L 705.00 332.50 L 704.00 333.50 L 696.00 333.50 L 695.00 332.50 L 680.00 332.50 L 679.00 333.50 L 677.00 333.50 L 676.00 332.50 L 674.00 332.50 L 673.50 332.00 L 673.50 145.00 L 674.00 144.50 L 675.00 144.50 L 676.00 143.50 L 753.00 143.50 L 754.00 144.50 L 769.00 144.50 L 770.00 145.50 L 775.00 145.50 L 776.00 146.50 L 781.00 146.50 L 782.00 147.50 L 783.00 147.50 L 784.00 148.50 L 786.00 148.50 L 787.00 149.50 L 788.00 149.50 L 789.00 150.50 L 790.00 150.50 L 791.00 151.50 L 792.00 151.50 L 793.00 152.50 L 794.00 152.50 L 795.00 153.50 L 796.00 153.50 L 799.00 156.50 L 800.00 156.50 L 809.50 166.00 L 809.50 167.00 L 811.50 169.00 L 811.50 170.00 L 812.50 171.00 L 812.50 172.00 L 814.50 174.00 L 814.50 175.00 L 815.50 176.00 L 815.50 177.00 L 816.50 178.00 L 816.50 180.00 L 817.50 181.00 L 817.50 184.00 L 818.50 185.00 L 818.50 187.00 L 819.50 188.00 L 819.50 191.00 L 820.50 192.00 L 820.50 218.00 L 819.50 219.00 L 819.50 222.00 L 818.50 223.00 L 818.50 225.00 L 817.50 226.00 L 817.50 228.00 L 816.50 229.00 L 816.50 231.00 L 815.50 232.00 L 815.50 233.00 L 814.50 234.00 L 814.50 235.00 L 813.50 236.00 L 813.50 237.00 L 812.50 238.00 L 812.50 239.00 L 811.50 240.00 L 811.50 241.00 L 808.50 244.00 L 808.50 245.00 L 801.00 252.50 L 800.00 252.50 L 798.00 254.50 L 797.00 254.50 L 795.00 256.50 L 794.00 256.50 L 792.00 258.50 L 790.00 258.50 L 789.00 259.50 L 788.00 259.50 L 787.00 260.50 L 786.00 260.50 L 785.00 261.50 L 783.00 261.50 L 782.00 262.50 L 779.00 262.50 L 778.00 263.50 L 774.00 263.50 L 773.00 264.50 L 767.00 264.50 L 766.00 265.50 L 716.00 265.50 L 714.50 267.00 L 714.50 275.00 L 715.50 276.00 L 715.50 280.00 L 714.50 281.00 L 714.50 332.00 L 714.00 332.50 L 711.00 332.50 L 710.00 333.50 Z
M 470.00 333.50 L 467.00 333.50 L 466.00 332.50 L 382.00 332.50 L 381.00 333.50 L 368.00 333.50 L 367.00 332.50 L 366.00 332.50 L 365.00 333.50 L 350.00 333.50 L 349.00 332.50 L 340.00 332.50 L 339.00 333.50 L 337.00 333.50 L 336.00 332.50 L 335.00 332.50 L 333.50 331.00 L 333.50 146.00 L 335.00 144.50 L 336.00 144.50 L 337.00 143.50 L 470.00 143.50 L 472.50 146.00 L 472.50 178.00 L 471.00 179.50 L 470.00 179.50 L 469.00 180.50 L 465.00 180.50 L 464.00 179.50 L 389.00 179.50 L 388.00 180.50 L 385.00 180.50 L 384.00 179.50 L 377.00 179.50 L 375.50 181.00 L 375.50 206.00 L 374.50 207.00 L 374.50 217.00 L 376.00 218.50 L 461.00 218.50 L 462.00 219.50 L 463.00 219.50 L 464.50 221.00 L 464.50 249.00 L 463.50 250.00 L 463.50 251.00 L 463.00 251.50 L 397.00 251.50 L 396.00 252.50 L 384.00 252.50 L 383.00 251.50 L 378.00 251.50 L 377.00 252.50 L 376.00 252.50 L 374.50 254.00 L 374.50 258.00 L 375.50 259.00 L 375.50 271.00 L 374.50 272.00 L 374.50 273.00 L 375.50 274.00 L 375.50 275.00 L 374.50 276.00 L 374.50 295.00 L 376.00 296.50 L 377.00 296.50 L 378.00 297.50 L 473.00 297.50 L 474.50 299.00 L 474.50 331.00 L 473.00 332.50 L 471.00 332.50 L 470.00 333.50 Z
M 1413.00 333.50 L 1398.00 333.50 L 1397.00 332.50 L 1304.00 332.50 L 1303.00 333.50 L 1278.00 333.50 L 1275.50 331.00 L 1275.50 145.00 L 1277.00 143.50 L 1411.00 143.50 L 1412.00 144.50 L 1414.00 144.50 L 1414.50 145.00 L 1414.50 178.00 L 1413.00 179.50 L 1410.00 179.50 L 1409.00 180.50 L 1406.00 180.50 L 1405.00 179.50 L 1334.00 179.50 L 1333.00 180.50 L 1332.00 180.50 L 1331.00 179.50 L 1328.00 179.50 L 1327.00 180.50 L 1325.00 180.50 L 1324.00 179.50 L 1319.00 179.50 L 1316.50 182.00 L 1316.50 217.00 L 1318.00 218.50 L 1404.00 218.50 L 1405.00 219.50 L 1406.00 219.50 L 1406.50 220.00 L 1406.50 250.00 L 1405.00 251.50 L 1320.00 251.50 L 1319.00 252.50 L 1318.00 252.50 L 1317.50 253.00 L 1317.50 254.00 L 1316.50 255.00 L 1316.50 296.00 L 1317.00 296.50 L 1318.00 296.50 L 1319.00 297.50 L 1415.00 297.50 L 1416.50 299.00 L 1416.50 331.00 L 1415.00 332.50 L 1414.00 332.50 L 1413.00 333.50 Z
M 980.00 333.50 L 979.00 332.50 L 872.00 332.50 L 871.00 333.50 L 865.00 333.50 L 864.00 332.50 L 853.00 332.50 L 852.00 333.50 L 849.00 333.50 L 848.00 332.50 L 847.00 332.50 L 845.50 331.00 L 845.50 146.00 L 848.00 143.50 L 982.00 143.50 L 984.50 146.00 L 984.50 178.00 L 983.00 179.50 L 982.00 179.50 L 981.00 180.50 L 978.00 180.50 L 977.00 179.50 L 889.00 179.50 L 887.50 181.00 L 887.50 205.00 L 886.50 206.00 L 886.50 217.00 L 888.00 218.50 L 933.00 218.50 L 934.00 219.50 L 947.00 219.50 L 948.00 218.50 L 951.00 218.50 L 952.00 219.50 L 953.00 218.50 L 955.00 218.50 L 956.00 219.50 L 965.00 219.50 L 966.00 218.50 L 973.00 218.50 L 974.00 219.50 L 975.00 219.50 L 975.50 220.00 L 975.50 221.00 L 976.50 222.00 L 976.50 249.00 L 975.50 250.00 L 975.50 251.00 L 975.00 251.50 L 889.00 251.50 L 887.50 253.00 L 887.50 254.00 L 886.50 255.00 L 886.50 257.00 L 887.50 258.00 L 887.50 277.00 L 886.50 278.00 L 886.50 282.00 L 887.50 283.00 L 887.50 285.00 L 886.50 286.00 L 886.50 295.00 L 888.00 296.50 L 889.00 296.50 L 890.00 297.50 L 984.00 297.50 L 985.00 298.50 L 986.00 298.50 L 986.50 299.00 L 986.50 331.00 L 985.00 332.50 L 981.00 332.50 L 980.00 333.50 Z
M 1962.00 333.50 L 1960.00 333.50 L 1959.00 332.50 L 1832.00 332.50 L 1831.00 333.50 L 1830.00 333.50 L 1829.00 332.50 L 1826.00 332.50 L 1825.50 332.00 L 1825.50 146.00 L 1828.00 143.50 L 1962.00 143.50 L 1964.50 146.00 L 1964.50 178.00 L 1962.00 180.50 L 1956.00 180.50 L 1955.00 179.50 L 1868.00 179.50 L 1867.50 180.00 L 1867.50 181.00 L 1866.50 182.00 L 1866.50 216.00 L 1867.50 217.00 L 1867.50 218.00 L 1868.00 218.50 L 1886.00 218.50 L 1887.00 219.50 L 1896.00 219.50 L 1897.00 218.50 L 1903.00 218.50 L 1904.00 219.50 L 1928.00 219.50 L 1929.00 218.50 L 1954.00 218.50 L 1956.50 221.00 L 1956.50 250.00 L 1954.00 252.50 L 1949.00 252.50 L 1948.00 251.50 L 1868.00 251.50 L 1867.50 252.00 L 1867.50 253.00 L 1866.50 254.00 L 1866.50 261.00 L 1867.50 262.00 L 1867.50 264.00 L 1866.50 265.00 L 1866.50 296.00 L 1868.00 297.50 L 1964.00 297.50 L 1965.00 298.50 L 1966.00 298.50 L 1966.50 299.00 L 1966.50 331.00 L 1965.00 332.50 L 1963.00 332.50 L 1962.00 333.50 Z
M 1724.00 337.50 L 1710.00 337.50 L 1709.00 336.50 L 1701.00 336.50 L 1700.00 335.50 L 1695.00 335.50 L 1694.00 334.50 L 1692.00 334.50 L 1691.00 333.50 L 1689.00 333.50 L 1688.00 332.50 L 1686.00 332.50 L 1685.00 331.50 L 1683.00 331.50 L 1682.00 330.50 L 1681.00 330.50 L 1680.00 329.50 L 1679.00 329.50 L 1678.00 328.50 L 1677.00 328.50 L 1676.00 327.50 L 1675.00 327.50 L 1674.00 326.50 L 1673.00 326.50 L 1672.00 325.50 L 1671.00 325.50 L 1670.00 324.50 L 1669.00 324.50 L 1668.00 323.50 L 1667.00 323.50 L 1665.00 321.50 L 1664.00 321.50 L 1659.00 316.50 L 1658.00 316.50 L 1647.50 306.00 L 1647.50 305.00 L 1644.50 302.00 L 1644.50 301.00 L 1642.50 299.00 L 1642.50 298.00 L 1640.50 296.00 L 1640.50 295.00 L 1639.50 294.00 L 1639.50 293.00 L 1638.50 292.00 L 1638.50 291.00 L 1636.50 289.00 L 1636.50 287.00 L 1635.50 286.00 L 1635.50 285.00 L 1634.50 284.00 L 1634.50 282.00 L 1633.50 281.00 L 1633.50 280.00 L 1632.50 279.00 L 1632.50 277.00 L 1631.50 276.00 L 1631.50 274.00 L 1630.50 273.00 L 1630.50 270.00 L 1629.50 269.00 L 1629.50 265.00 L 1628.50 264.00 L 1628.50 261.00 L 1627.50 260.00 L 1627.50 253.00 L 1626.50 252.00 L 1626.50 227.00 L 1627.50 226.00 L 1627.50 219.00 L 1628.50 218.00 L 1628.50 214.00 L 1629.50 213.00 L 1629.50 209.00 L 1630.50 208.00 L 1630.50 205.00 L 1631.50 204.00 L 1631.50 202.00 L 1632.50 201.00 L 1632.50 199.00 L 1633.50 198.00 L 1633.50 196.00 L 1634.50 195.00 L 1634.50 194.00 L 1635.50 193.00 L 1635.50 192.00 L 1636.50 191.00 L 1636.50 190.00 L 1637.50 189.00 L 1637.50 188.00 L 1638.50 187.00 L 1638.50 186.00 L 1639.50 185.00 L 1639.50 184.00 L 1640.50 183.00 L 1640.50 182.00 L 1641.50 181.00 L 1641.50 180.00 L 1643.50 178.00 L 1643.50 177.00 L 1645.50 175.00 L 1645.50 174.00 L 1650.50 169.00 L 1650.50 168.00 L 1660.00 158.50 L 1661.00 158.50 L 1665.00 154.50 L 1666.00 154.50 L 1668.00 152.50 L 1669.00 152.50 L 1670.00 151.50 L 1671.00 151.50 L 1673.00 149.50 L 1675.00 149.50 L 1676.00 148.50 L 1677.00 148.50 L 1679.00 146.50 L 1681.00 146.50 L 1682.00 145.50 L 1684.00 145.50 L 1685.00 144.50 L 1688.00 144.50 L 1689.00 143.50 L 1691.00 143.50 L 1692.00 142.50 L 1694.00 142.50 L 1695.00 141.50 L 1699.00 141.50 L 1700.00 140.50 L 1706.00 140.50 L 1707.00 139.50 L 1725.00 139.50 L 1726.00 140.50 L 1732.00 140.50 L 1733.00 141.50 L 1738.00 141.50 L 1739.00 142.50 L 1742.00 142.50 L 1743.00 143.50 L 1745.00 143.50 L 1746.00 144.50 L 1748.00 144.50 L 1749.00 145.50 L 1751.00 145.50 L 1752.00 146.50 L 1754.00 146.50 L 1755.00 147.50 L 1756.00 147.50 L 1757.00 148.50 L 1758.00 148.50 L 1759.00 149.50 L 1760.00 149.50 L 1761.00 150.50 L 1762.00 150.50 L 1764.00 152.50 L 1765.00 152.50 L 1767.00 154.50 L 1768.00 154.50 L 1773.00 159.50 L 1774.00 159.50 L 1774.50 160.00 L 1774.50 161.00 L 1776.50 162.00 L 1778.50 164.00 L 1778.50 165.00 L 1784.50 171.00 L 1784.50 172.00 L 1786.50 174.00 L 1786.50 175.00 L 1787.50 176.00 L 1787.50 177.00 L 1788.50 178.00 L 1788.50 179.00 L 1789.50 180.00 L 1789.50 181.00 L 1790.50 182.00 L 1790.50 183.00 L 1791.50 184.00 L 1791.50 186.00 L 1792.50 187.00 L 1792.50 189.00 L 1793.50 190.00 L 1793.50 192.00 L 1794.50 193.00 L 1794.50 194.00 L 1795.50 195.00 L 1795.50 198.00 L 1796.50 199.00 L 1796.50 206.00 L 1795.00 207.50 L 1777.00 207.50 L 1776.00 208.50 L 1772.00 208.50 L 1771.00 207.50 L 1767.00 207.50 L 1766.00 208.50 L 1762.00 208.50 L 1761.00 207.50 L 1758.00 207.50 L 1756.50 206.00 L 1756.50 204.00 L 1755.50 203.00 L 1755.50 200.00 L 1754.50 199.00 L 1754.50 197.00 L 1751.50 194.00 L 1751.50 193.00 L 1746.50 188.00 L 1746.50 187.00 L 1743.00 183.50 L 1742.00 183.50 L 1740.00 181.50 L 1739.00 181.50 L 1738.00 180.50 L 1737.00 180.50 L 1736.00 179.50 L 1735.00 179.50 L 1734.00 178.50 L 1732.00 178.50 L 1731.00 177.50 L 1730.00 177.50 L 1729.00 176.50 L 1726.00 176.50 L 1725.00 175.50 L 1709.00 175.50 L 1708.00 176.50 L 1704.00 176.50 L 1703.00 177.50 L 1701.00 177.50 L 1700.00 178.50 L 1698.00 178.50 L 1697.00 179.50 L 1696.00 179.50 L 1695.00 180.50 L 1694.00 180.50 L 1692.00 182.50 L 1691.00 182.50 L 1689.00 184.50 L 1688.00 184.50 L 1680.50 192.00 L 1680.50 193.00 L 1678.50 195.00 L 1678.50 196.00 L 1676.50 198.00 L 1676.50 199.00 L 1675.50 200.00 L 1675.50 202.00 L 1674.50 203.00 L 1674.50 204.00 L 1673.50 205.00 L 1673.50 207.00 L 1672.50 208.00 L 1672.50 210.00 L 1671.50 211.00 L 1671.50 214.00 L 1670.50 215.00 L 1670.50 217.00 L 1669.50 218.00 L 1669.50 222.00 L 1668.50 223.00 L 1668.50 237.00 L 1667.50 238.00 L 1667.50 239.00 L 1668.50 240.00 L 1668.50 256.00 L 1669.50 257.00 L 1669.50 260.00 L 1670.50 261.00 L 1670.50 263.00 L 1671.50 264.00 L 1671.50 267.00 L 1672.50 268.00 L 1672.50 270.00 L 1673.50 271.00 L 1673.50 272.00 L 1674.50 273.00 L 1674.50 274.00 L 1675.50 275.00 L 1675.50 276.00 L 1676.50 277.00 L 1676.50 278.00 L 1677.50 279.00 L 1677.50 280.00 L 1678.50 281.00 L 1678.50 282.00 L 1680.50 284.00 L 1680.50 285.00 L 1684.50 289.00 L 1688.00 292.50 L 1689.00 292.50 L 1692.00 295.50 L 1693.00 295.50 L 1694.00 296.50 L 1695.00 296.50 L 1696.00 297.50 L 1697.00 297.50 L 1698.00 298.50 L 1700.00 298.50 L 1701.00 299.50 L 1703.00 299.50 L 1704.00 300.50 L 1708.00 300.50 L 1709.00 301.50 L 1726.00 301.50 L 1727.00 300.50 L 1729.00 300.50 L 1730.00 299.50 L 1732.00 299.50 L 1733.00 298.50 L 1735.00 298.50 L 1736.00 297.50 L 1737.00 297.50 L 1738.00 296.50 L 1739.00 296.50 L 1741.00 294.50 L 1742.00 294.50 L 1748.50 288.00 L 1748.50 287.00 L 1749.50 286.00 L 1749.50 285.00 L 1751.50 283.00 L 1751.50 282.00 L 1752.50 281.00 L 1752.50 280.00 L 1753.50 279.00 L 1753.50 278.00 L 1754.50 277.00 L 1754.50 275.00 L 1755.50 274.00 L 1755.50 272.00 L 1756.50 271.00 L 1756.50 269.00 L 1757.50 268.00 L 1757.50 265.00 L 1758.50 264.00 L 1758.50 262.00 L 1761.00 259.50 L 1797.00 259.50 L 1798.50 261.00 L 1798.50 268.00 L 1797.50 269.00 L 1797.50 273.00 L 1796.50 274.00 L 1796.50 277.00 L 1795.50 278.00 L 1795.50 281.00 L 1794.50 282.00 L 1794.50 284.00 L 1793.50 285.00 L 1793.50 287.00 L 1792.50 288.00 L 1792.50 289.00 L 1791.50 290.00 L 1791.50 291.00 L 1790.50 292.00 L 1790.50 293.00 L 1789.50 294.00 L 1789.50 295.00 L 1788.50 296.00 L 1788.50 297.00 L 1787.50 298.00 L 1787.50 299.00 L 1786.50 300.00 L 1786.50 301.00 L 1784.50 303.00 L 1784.50 304.00 L 1782.50 306.00 L 1782.50 307.00 L 1780.50 309.00 L 1780.50 310.00 L 1771.00 319.50 L 1770.00 319.50 L 1766.00 323.50 L 1765.00 323.50 L 1763.00 325.50 L 1762.00 325.50 L 1761.00 326.50 L 1760.00 326.50 L 1759.00 327.50 L 1758.00 327.50 L 1756.00 329.50 L 1754.00 329.50 L 1753.00 330.50 L 1752.00 330.50 L 1751.00 331.50 L 1749.00 331.50 L 1748.00 332.50 L 1746.00 332.50 L 1745.00 333.50 L 1744.00 333.50 L 1743.00 334.50 L 1739.00 334.50 L 1738.00 335.50 L 1732.00 335.50 L 1731.00 336.50 L 1725.00 336.50 L 1724.00 337.50 Z
M 654.00 333.50 L 649.00 333.50 L 648.00 332.50 L 623.00 332.50 L 622.00 333.50 L 616.00 333.50 L 615.00 332.50 L 609.00 332.50 L 605.50 329.00 L 605.50 328.00 L 604.50 327.00 L 604.50 325.00 L 602.50 323.00 L 602.50 322.00 L 600.50 320.00 L 600.50 319.00 L 598.50 317.00 L 598.50 316.00 L 596.50 314.00 L 596.50 313.00 L 595.50 312.00 L 595.50 311.00 L 594.50 310.00 L 594.50 309.00 L 592.50 307.00 L 592.50 306.00 L 591.50 305.00 L 591.50 304.00 L 588.50 301.00 L 588.50 300.00 L 587.50 299.00 L 587.50 298.00 L 585.50 296.00 L 585.50 295.00 L 584.50 294.00 L 584.50 293.00 L 582.50 291.00 L 582.50 290.00 L 581.50 289.00 L 581.50 288.00 L 579.50 286.00 L 579.50 285.00 L 578.50 284.00 L 578.50 283.00 L 576.50 281.00 L 576.50 280.00 L 575.50 279.00 L 575.50 278.00 L 572.50 275.00 L 572.50 274.00 L 570.50 272.00 L 570.50 271.00 L 569.00 269.50 L 565.50 273.00 L 565.50 274.00 L 563.50 276.00 L 563.50 277.00 L 562.50 278.00 L 562.50 279.00 L 561.50 280.00 L 561.50 281.00 L 559.50 283.00 L 559.50 284.00 L 556.50 287.00 L 556.50 288.00 L 554.50 290.00 L 554.50 291.00 L 553.50 292.00 L 553.50 293.00 L 551.50 295.00 L 551.50 296.00 L 550.50 297.00 L 550.50 298.00 L 548.50 300.00 L 548.50 301.00 L 546.50 303.00 L 546.50 304.00 L 545.50 305.00 L 545.50 306.00 L 543.50 308.00 L 543.50 309.00 L 541.50 311.00 L 541.50 312.00 L 539.50 314.00 L 539.50 315.00 L 538.50 316.00 L 538.50 317.00 L 536.50 319.00 L 536.50 320.00 L 535.50 321.00 L 535.50 322.00 L 533.50 324.00 L 533.50 325.00 L 531.50 327.00 L 531.50 328.00 L 527.00 332.50 L 526.00 332.50 L 525.00 333.50 L 498.00 333.50 L 497.00 332.50 L 493.00 332.50 L 492.00 333.50 L 485.00 333.50 L 483.50 332.00 L 483.50 329.00 L 484.50 328.00 L 484.50 327.00 L 486.50 325.00 L 486.50 324.00 L 490.50 320.00 L 490.50 319.00 L 491.50 318.00 L 491.50 317.00 L 493.50 315.00 L 493.50 314.00 L 495.50 312.00 L 495.50 311.00 L 497.50 309.00 L 497.50 308.00 L 499.50 306.00 L 499.50 305.00 L 501.50 303.00 L 501.50 302.00 L 503.50 300.00 L 503.50 299.00 L 505.50 297.00 L 505.50 296.00 L 506.50 295.00 L 506.50 294.00 L 508.50 292.00 L 508.50 291.00 L 510.50 289.00 L 510.50 288.00 L 512.50 286.00 L 512.50 285.00 L 513.50 284.00 L 513.50 283.00 L 515.50 281.00 L 515.50 280.00 L 517.50 278.00 L 517.50 277.00 L 519.50 275.00 L 519.50 274.00 L 521.50 272.00 L 521.50 271.00 L 523.50 269.00 L 523.50 268.00 L 525.50 266.00 L 525.50 265.00 L 527.50 263.00 L 527.50 262.00 L 529.50 260.00 L 529.50 259.00 L 531.50 257.00 L 531.50 256.00 L 533.50 254.00 L 533.50 253.00 L 534.50 252.00 L 534.50 251.00 L 536.50 249.00 L 536.50 248.00 L 538.50 246.00 L 538.50 245.00 L 540.50 243.00 L 540.50 242.00 L 542.50 240.00 L 542.50 239.00 L 544.50 237.00 L 544.50 231.00 L 542.50 229.00 L 542.50 228.00 L 540.50 226.00 L 540.50 225.00 L 538.50 223.00 L 538.50 222.00 L 536.50 220.00 L 536.50 219.00 L 534.50 217.00 L 534.50 216.00 L 532.50 214.00 L 532.50 213.00 L 530.50 211.00 L 530.50 210.00 L 528.50 208.00 L 528.50 207.00 L 527.50 206.00 L 527.50 205.00 L 525.50 203.00 L 525.50 202.00 L 523.50 200.00 L 523.50 199.00 L 521.50 197.00 L 521.50 196.00 L 518.50 193.00 L 518.50 192.00 L 516.50 190.00 L 516.50 189.00 L 514.50 187.00 L 514.50 186.00 L 512.50 184.00 L 512.50 183.00 L 510.50 181.00 L 510.50 180.00 L 508.50 178.00 L 508.50 177.00 L 506.50 175.00 L 506.50 174.00 L 504.50 172.00 L 504.50 171.00 L 502.50 169.00 L 502.50 168.00 L 500.50 166.00 L 500.50 165.00 L 498.50 163.00 L 498.50 162.00 L 496.50 160.00 L 496.50 159.00 L 495.50 158.00 L 495.50 157.00 L 492.50 154.00 L 492.50 153.00 L 489.50 150.00 L 489.50 149.00 L 488.50 148.00 L 488.50 147.00 L 487.50 146.00 L 490.00 143.50 L 533.00 143.50 L 536.50 147.00 L 536.50 148.00 L 538.50 150.00 L 538.50 151.00 L 539.50 152.00 L 539.50 153.00 L 541.50 155.00 L 541.50 156.00 L 542.50 157.00 L 542.50 158.00 L 543.50 159.00 L 543.50 160.00 L 545.50 162.00 L 545.50 163.00 L 547.50 165.00 L 547.50 166.00 L 549.50 168.00 L 549.50 169.00 L 550.50 170.00 L 550.50 171.00 L 552.50 173.00 L 552.50 174.00 L 553.50 175.00 L 553.50 176.00 L 554.50 177.00 L 554.50 178.00 L 556.50 180.00 L 556.50 181.00 L 557.50 182.00 L 557.50 183.00 L 559.50 185.00 L 559.50 186.00 L 560.50 187.00 L 560.50 188.00 L 562.50 190.00 L 562.50 191.00 L 564.50 193.00 L 564.50 194.00 L 566.50 196.00 L 566.50 197.00 L 567.50 198.00 L 567.50 199.00 L 568.50 200.00 L 568.50 201.00 L 570.00 202.50 L 573.50 199.00 L 573.50 198.00 L 574.50 197.00 L 574.50 196.00 L 577.50 193.00 L 577.50 192.00 L 578.50 191.00 L 578.50 190.00 L 579.50 189.00 L 579.50 188.00 L 581.50 186.00 L 581.50 185.00 L 583.50 183.00 L 583.50 182.00 L 585.50 180.00 L 585.50 179.00 L 586.50 178.00 L 586.50 177.00 L 588.50 175.00 L 588.50 174.00 L 590.50 172.00 L 590.50 171.00 L 591.50 170.00 L 591.50 169.00 L 594.50 166.00 L 594.50 165.00 L 595.50 164.00 L 595.50 163.00 L 597.50 161.00 L 597.50 160.00 L 598.50 159.00 L 598.50 158.00 L 600.50 156.00 L 600.50 155.00 L 601.50 154.00 L 601.50 153.00 L 603.50 151.00 L 603.50 150.00 L 604.50 149.00 L 604.50 148.00 L 608.00 144.50 L 609.00 144.50 L 610.00 143.50 L 649.00 143.50 L 650.50 145.00 L 650.50 149.00 L 647.50 152.00 L 647.50 153.00 L 644.50 156.00 L 644.50 157.00 L 643.50 158.00 L 643.50 159.00 L 642.50 160.00 L 642.50 161.00 L 640.50 163.00 L 640.50 164.00 L 637.50 167.00 L 637.50 168.00 L 635.50 170.00 L 635.50 171.00 L 634.50 172.00 L 634.50 173.00 L 632.50 175.00 L 632.50 176.00 L 630.50 178.00 L 630.50 179.00 L 629.50 180.00 L 629.50 181.00 L 627.50 183.00 L 627.50 184.00 L 624.50 187.00 L 624.50 188.00 L 622.50 190.00 L 622.50 191.00 L 620.50 193.00 L 620.50 194.00 L 618.50 196.00 L 618.50 197.00 L 616.50 199.00 L 616.50 200.00 L 615.50 201.00 L 615.50 202.00 L 613.50 204.00 L 613.50 205.00 L 611.50 207.00 L 611.50 208.00 L 608.50 211.00 L 608.50 212.00 L 606.50 214.00 L 606.50 215.00 L 605.50 216.00 L 605.50 217.00 L 603.50 219.00 L 603.50 220.00 L 601.50 222.00 L 601.50 223.00 L 599.50 225.00 L 599.50 226.00 L 597.50 228.00 L 597.50 229.00 L 595.50 231.00 L 595.50 232.00 L 594.50 233.00 L 594.50 236.00 L 596.50 238.00 L 596.50 239.00 L 597.50 240.00 L 597.50 241.00 L 600.50 244.00 L 600.50 245.00 L 602.50 247.00 L 602.50 248.00 L 604.50 250.00 L 604.50 251.00 L 606.50 253.00 L 606.50 254.00 L 608.50 256.00 L 608.50 257.00 L 610.50 259.00 L 610.50 260.00 L 611.50 261.00 L 611.50 262.00 L 613.50 264.00 L 613.50 265.00 L 615.50 267.00 L 615.50 268.00 L 617.50 270.00 L 617.50 271.00 L 619.50 273.00 L 619.50 274.00 L 620.50 275.00 L 620.50 276.00 L 622.50 278.00 L 622.50 279.00 L 623.50 280.00 L 623.50 281.00 L 625.50 283.00 L 625.50 284.00 L 627.50 286.00 L 627.50 287.00 L 630.50 290.00 L 630.50 291.00 L 632.50 293.00 L 632.50 294.00 L 634.50 296.00 L 634.50 297.00 L 635.50 298.00 L 635.50 299.00 L 637.50 301.00 L 637.50 302.00 L 639.50 304.00 L 639.50 305.00 L 642.50 308.00 L 642.50 309.00 L 643.50 310.00 L 643.50 311.00 L 645.50 313.00 L 645.50 314.00 L 647.50 316.00 L 647.50 317.00 L 648.50 318.00 L 648.50 319.00 L 650.50 321.00 L 650.50 322.00 L 653.50 325.00 L 653.50 326.00 L 654.50 327.00 L 654.50 328.00 L 655.50 329.00 L 655.50 332.00 L 654.00 333.50 Z
M 1238.00 333.50 L 1233.00 333.50 L 1232.00 332.50 L 1228.00 332.50 L 1227.00 333.50 L 1210.00 333.50 L 1209.00 332.50 L 1205.00 332.50 L 1204.00 333.50 L 1203.00 333.50 L 1202.00 332.50 L 1201.00 332.50 L 1199.50 331.00 L 1199.50 146.00 L 1202.00 143.50 L 1223.00 143.50 L 1224.00 144.50 L 1230.00 144.50 L 1231.00 143.50 L 1238.00 143.50 L 1239.00 144.50 L 1240.00 144.50 L 1240.50 145.00 L 1240.50 146.00 L 1241.50 147.00 L 1241.50 152.00 L 1240.50 153.00 L 1240.50 326.00 L 1241.50 327.00 L 1241.50 328.00 L 1240.50 329.00 L 1240.50 332.00 L 1240.00 332.50 L 1239.00 332.50 L 1238.00 333.50 Z
M 558.00 98.50 L 537.00 98.50 L 536.00 97.50 L 527.00 97.50 L 526.00 96.50 L 525.00 96.50 L 523.50 95.00 L 523.50 94.00 L 522.50 93.00 L 522.50 85.00 L 523.50 84.00 L 523.50 38.00 L 522.50 37.00 L 522.50 18.00 L 521.50 17.00 L 521.50 16.00 L 519.00 13.50 L 518.00 13.50 L 517.00 12.50 L 516.00 12.50 L 515.50 12.00 L 515.50 10.00 L 517.00 8.50 L 518.00 8.50 L 519.00 7.50 L 522.00 7.50 L 523.00 6.50 L 530.00 6.50 L 531.00 5.50 L 535.00 5.50 L 536.00 4.50 L 538.00 4.50 L 539.00 3.50 L 542.00 3.50 L 543.50 5.00 L 543.50 33.00 L 544.00 33.50 L 545.00 33.50 L 546.00 32.50 L 547.00 32.50 L 548.00 31.50 L 551.00 31.50 L 552.00 30.50 L 563.00 30.50 L 564.00 31.50 L 567.00 31.50 L 568.00 32.50 L 569.00 32.50 L 570.00 33.50 L 571.00 33.50 L 572.00 34.50 L 573.00 34.50 L 578.50 40.00 L 578.50 41.00 L 580.50 43.00 L 580.50 44.00 L 581.50 45.00 L 581.50 46.00 L 582.50 47.00 L 582.50 48.00 L 583.50 49.00 L 583.50 50.00 L 584.50 51.00 L 584.50 73.00 L 583.50 74.00 L 583.50 77.00 L 582.50 78.00 L 582.50 79.00 L 581.50 80.00 L 581.50 81.00 L 579.50 83.00 L 579.50 84.00 L 577.50 86.00 L 577.50 87.00 L 571.00 93.50 L 570.00 93.50 L 569.00 94.50 L 568.00 94.50 L 567.00 95.50 L 565.00 95.50 L 564.00 96.50 L 563.00 96.50 L 562.00 97.50 L 559.00 97.50 L 558.00 98.50 Z
M 442.00 98.50 L 423.00 98.50 L 422.00 97.50 L 420.00 97.50 L 419.00 96.50 L 417.00 96.50 L 416.00 95.50 L 415.00 95.50 L 414.00 94.50 L 413.00 94.50 L 411.00 92.50 L 410.00 92.50 L 408.50 91.00 L 408.50 90.00 L 404.50 86.00 L 404.50 85.00 L 403.50 84.00 L 403.50 83.00 L 402.50 82.00 L 402.50 81.00 L 401.50 80.00 L 401.50 78.00 L 400.50 77.00 L 400.50 75.00 L 399.50 74.00 L 399.50 69.00 L 398.50 68.00 L 398.50 63.00 L 399.50 62.00 L 399.50 55.00 L 400.50 54.00 L 400.50 52.00 L 401.50 51.00 L 401.50 50.00 L 402.50 49.00 L 402.50 48.00 L 403.50 47.00 L 403.50 46.00 L 404.50 45.00 L 404.50 44.00 L 405.50 43.00 L 405.50 42.00 L 412.00 35.50 L 413.00 35.50 L 414.00 34.50 L 415.00 34.50 L 416.00 33.50 L 417.00 33.50 L 418.00 32.50 L 419.00 32.50 L 420.00 31.50 L 422.00 31.50 L 423.00 30.50 L 428.00 30.50 L 429.00 29.50 L 437.00 29.50 L 438.00 30.50 L 443.00 30.50 L 444.00 31.50 L 446.00 31.50 L 447.00 32.50 L 448.00 32.50 L 449.00 33.50 L 451.00 33.50 L 453.00 35.50 L 454.00 35.50 L 459.50 41.00 L 459.50 42.00 L 460.50 43.00 L 460.50 44.00 L 461.50 45.00 L 461.50 46.00 L 462.50 47.00 L 462.50 48.00 L 463.50 49.00 L 463.50 50.00 L 464.50 51.00 L 464.50 54.00 L 465.50 55.00 L 465.50 72.00 L 464.50 73.00 L 464.50 76.00 L 463.50 77.00 L 463.50 79.00 L 462.50 80.00 L 462.50 81.00 L 461.50 82.00 L 461.50 83.00 L 460.50 84.00 L 460.50 85.00 L 458.50 87.00 L 458.50 88.00 L 454.00 92.50 L 453.00 92.50 L 451.00 94.50 L 450.00 94.50 L 449.00 95.50 L 448.00 95.50 L 447.00 96.50 L 446.00 96.50 L 445.00 97.50 L 443.00 97.50 L 442.00 98.50 Z
M 1102.50 229.00 L 1103.00 228.50 L 1107.00 228.50 L 1108.00 227.50 L 1111.00 227.50 L 1112.00 226.50 L 1113.00 226.50 L 1114.00 225.50 L 1116.00 225.50 L 1120.50 221.00 L 1120.50 220.00 L 1123.50 217.00 L 1123.50 215.00 L 1124.50 214.00 L 1124.50 210.00 L 1125.50 209.00 L 1125.50 195.00 L 1124.50 194.00 L 1124.50 191.00 L 1123.50 190.00 L 1123.50 189.00 L 1122.50 188.00 L 1122.50 187.00 L 1116.00 180.50 L 1115.00 180.50 L 1114.00 179.50 L 1112.00 179.50 L 1111.00 178.50 L 1107.00 178.50 L 1106.00 177.50 L 1102.00 177.50 L 1101.00 176.50 L 1080.00 176.50 L 1079.00 177.50 L 1063.00 177.50 L 1062.00 176.50 L 1061.00 177.50 L 1060.00 176.50 L 1056.00 176.50 L 1054.50 178.00 L 1054.50 228.00 L 1055.00 228.50 L 1057.00 228.50 L 1058.00 229.50 L 1102.00 229.50 L 1102.50 229.00 Z
M 755.50 232.00 L 756.00 231.50 L 761.00 231.50 L 762.00 230.50 L 765.00 230.50 L 766.00 229.50 L 767.00 229.50 L 768.00 228.50 L 769.00 228.50 L 771.00 226.50 L 772.00 226.50 L 775.50 223.00 L 775.50 222.00 L 777.50 220.00 L 777.50 219.00 L 778.50 218.00 L 778.50 217.00 L 779.50 216.00 L 779.50 213.00 L 780.50 212.00 L 780.50 209.00 L 781.50 208.00 L 781.50 201.00 L 780.50 200.00 L 780.50 197.00 L 779.50 196.00 L 779.50 194.00 L 778.50 193.00 L 778.50 191.00 L 776.50 189.00 L 776.50 188.00 L 770.00 181.50 L 769.00 181.50 L 768.00 180.50 L 767.00 180.50 L 766.00 179.50 L 763.00 179.50 L 762.00 178.50 L 758.00 178.50 L 757.00 177.50 L 750.00 177.50 L 749.00 176.50 L 736.00 176.50 L 735.00 177.50 L 719.00 177.50 L 718.00 176.50 L 717.00 176.50 L 714.50 179.00 L 714.50 182.00 L 715.50 183.00 L 715.50 212.00 L 714.50 213.00 L 714.50 229.00 L 715.50 230.00 L 715.50 231.00 L 717.00 232.50 L 755.00 232.50 L 755.50 232.00 Z
M 382.00 97.50 L 334.00 97.50 L 332.50 96.00 L 332.50 95.00 L 335.00 92.50 L 337.00 92.50 L 338.00 91.50 L 341.00 91.50 L 343.50 89.00 L 343.50 88.00 L 344.50 87.00 L 344.50 85.00 L 345.50 84.00 L 345.50 77.00 L 346.50 76.00 L 346.50 29.00 L 345.50 28.00 L 345.50 19.00 L 344.50 18.00 L 344.50 16.00 L 343.50 15.00 L 343.50 14.00 L 342.00 12.50 L 341.00 12.50 L 340.00 11.50 L 338.00 11.50 L 337.00 10.50 L 335.00 10.50 L 333.50 9.00 L 333.50 7.00 L 334.00 6.50 L 335.00 6.50 L 336.00 5.50 L 408.00 5.50 L 410.50 8.00 L 410.50 12.00 L 409.50 13.00 L 409.50 18.00 L 410.50 19.00 L 410.50 29.00 L 409.50 30.00 L 409.50 31.00 L 407.00 33.50 L 406.00 33.50 L 404.50 32.00 L 404.50 31.00 L 403.50 30.00 L 403.50 27.00 L 402.50 26.00 L 402.50 25.00 L 401.50 24.00 L 401.50 23.00 L 394.00 15.50 L 393.00 15.50 L 392.00 14.50 L 391.00 14.50 L 390.00 13.50 L 387.00 13.50 L 386.00 12.50 L 370.00 12.50 L 368.50 14.00 L 368.50 28.00 L 367.50 29.00 L 367.50 45.00 L 368.50 46.00 L 368.50 48.00 L 369.00 48.50 L 378.00 48.50 L 379.00 47.50 L 381.00 47.50 L 382.00 46.50 L 383.00 46.50 L 385.50 44.00 L 385.50 43.00 L 386.50 42.00 L 386.50 41.00 L 387.50 40.00 L 387.50 37.00 L 389.00 35.50 L 391.00 35.50 L 392.50 37.00 L 392.50 40.00 L 393.50 41.00 L 393.50 46.00 L 392.50 47.00 L 392.50 66.00 L 392.00 66.50 L 389.00 66.50 L 387.50 65.00 L 387.50 64.00 L 386.50 63.00 L 386.50 61.00 L 385.50 60.00 L 385.50 59.00 L 382.00 55.50 L 379.00 55.50 L 378.00 54.50 L 369.00 54.50 L 368.50 55.00 L 368.50 56.00 L 367.50 57.00 L 367.50 59.00 L 368.50 60.00 L 368.50 81.00 L 369.50 82.00 L 369.50 86.00 L 370.50 87.00 L 370.50 88.00 L 374.00 91.50 L 376.00 91.50 L 377.00 92.50 L 380.00 92.50 L 381.00 93.50 L 382.00 93.50 L 382.50 94.00 L 382.50 97.00 L 382.00 97.50 Z
M 629.00 98.50 L 612.00 98.50 L 611.00 97.50 L 609.00 97.50 L 608.00 96.50 L 607.00 96.50 L 606.00 95.50 L 605.00 95.50 L 604.00 94.50 L 603.00 94.50 L 601.00 92.50 L 600.00 92.50 L 595.50 88.00 L 595.50 87.00 L 592.50 84.00 L 592.50 83.00 L 591.50 82.00 L 591.50 81.00 L 590.50 80.00 L 590.50 78.00 L 589.50 77.00 L 589.50 76.00 L 588.50 75.00 L 588.50 73.00 L 587.50 72.00 L 587.50 57.00 L 588.50 56.00 L 588.50 54.00 L 589.50 53.00 L 589.50 52.00 L 590.50 51.00 L 590.50 49.00 L 591.50 48.00 L 591.50 47.00 L 592.50 46.00 L 592.50 45.00 L 594.50 43.00 L 594.50 42.00 L 602.00 34.50 L 603.00 34.50 L 604.00 33.50 L 605.00 33.50 L 606.00 32.50 L 607.00 32.50 L 608.00 31.50 L 611.00 31.50 L 612.00 30.50 L 617.00 30.50 L 618.00 29.50 L 625.00 29.50 L 626.00 30.50 L 630.00 30.50 L 631.00 31.50 L 632.00 31.50 L 633.00 32.50 L 634.00 32.50 L 635.00 33.50 L 637.00 33.50 L 642.50 39.00 L 642.50 40.00 L 644.50 42.00 L 644.50 43.00 L 645.50 44.00 L 645.50 45.00 L 646.50 46.00 L 646.50 48.00 L 647.50 49.00 L 647.50 52.00 L 648.50 53.00 L 648.50 61.00 L 648.00 61.50 L 646.00 61.50 L 645.00 62.50 L 644.00 61.50 L 639.00 61.50 L 638.00 62.50 L 609.00 62.50 L 608.50 63.00 L 608.50 69.00 L 609.50 70.00 L 609.50 74.00 L 610.50 75.00 L 610.50 76.00 L 612.50 78.00 L 612.50 79.00 L 619.00 85.50 L 620.00 85.50 L 621.00 86.50 L 622.00 86.50 L 623.00 87.50 L 625.00 87.50 L 626.00 88.50 L 634.00 88.50 L 635.00 87.50 L 637.00 87.50 L 638.00 86.50 L 640.00 86.50 L 641.00 85.50 L 645.00 85.50 L 646.50 87.00 L 646.50 88.00 L 645.50 89.00 L 645.50 90.00 L 643.00 92.50 L 642.00 92.50 L 640.00 94.50 L 638.00 94.50 L 637.00 95.50 L 636.00 95.50 L 635.00 96.50 L 634.00 96.50 L 633.00 97.50 L 630.00 97.50 L 629.00 98.50 Z
M 684.00 98.50 L 664.00 98.50 L 663.00 97.50 L 659.00 97.50 L 658.00 96.50 L 655.00 96.50 L 654.00 95.50 L 653.00 95.50 L 651.50 94.00 L 651.50 91.00 L 650.50 90.00 L 650.50 78.00 L 651.50 77.00 L 651.50 75.00 L 652.00 74.50 L 654.00 74.50 L 655.50 76.00 L 655.50 77.00 L 656.50 78.00 L 656.50 79.00 L 657.50 80.00 L 657.50 81.00 L 658.50 82.00 L 658.50 83.00 L 660.50 85.00 L 660.50 86.00 L 664.00 89.50 L 665.00 89.50 L 666.00 90.50 L 668.00 90.50 L 669.00 91.50 L 672.00 91.50 L 673.00 92.50 L 674.00 92.50 L 675.00 91.50 L 677.00 91.50 L 678.00 90.50 L 679.00 90.50 L 683.50 86.00 L 683.50 80.00 L 682.50 79.00 L 682.50 78.00 L 680.00 75.50 L 679.00 75.50 L 677.00 73.50 L 676.00 73.50 L 675.00 72.50 L 673.00 72.50 L 672.00 71.50 L 671.00 71.50 L 670.00 70.50 L 669.00 70.50 L 668.00 69.50 L 666.00 69.50 L 665.00 68.50 L 664.00 68.50 L 663.00 67.50 L 662.00 67.50 L 659.00 64.50 L 658.00 64.50 L 655.50 62.00 L 655.50 61.00 L 654.50 60.00 L 654.50 59.00 L 653.50 58.00 L 653.50 57.00 L 652.50 56.00 L 652.50 52.00 L 651.50 51.00 L 651.50 49.00 L 652.50 48.00 L 652.50 46.00 L 653.50 45.00 L 653.50 44.00 L 654.50 43.00 L 654.50 42.00 L 655.50 41.00 L 655.50 40.00 L 662.00 33.50 L 663.00 33.50 L 664.00 32.50 L 666.00 32.50 L 667.00 31.50 L 668.00 31.50 L 669.00 30.50 L 676.00 30.50 L 677.00 29.50 L 684.00 29.50 L 685.00 30.50 L 691.00 30.50 L 692.00 31.50 L 695.00 31.50 L 696.00 32.50 L 697.00 32.50 L 698.50 34.00 L 698.50 36.00 L 699.50 37.00 L 699.50 50.00 L 698.00 51.50 L 697.00 51.50 L 694.50 49.00 L 694.50 48.00 L 693.50 47.00 L 693.50 46.00 L 692.50 45.00 L 692.50 44.00 L 690.50 42.00 L 690.50 41.00 L 687.00 37.50 L 686.00 37.50 L 685.00 36.50 L 684.00 36.50 L 683.00 35.50 L 676.00 35.50 L 675.00 36.50 L 674.00 36.50 L 671.50 39.00 L 671.50 41.00 L 670.50 42.00 L 670.50 45.00 L 671.50 46.00 L 671.50 48.00 L 672.50 49.00 L 672.50 50.00 L 673.00 50.50 L 674.00 50.50 L 677.00 53.50 L 678.00 53.50 L 679.00 54.50 L 680.00 54.50 L 681.00 55.50 L 683.00 55.50 L 684.00 56.50 L 686.00 56.50 L 687.00 57.50 L 688.00 57.50 L 689.00 58.50 L 691.00 58.50 L 692.00 59.50 L 693.00 59.50 L 700.50 67.00 L 700.50 68.00 L 701.50 69.00 L 701.50 70.00 L 702.50 71.00 L 702.50 82.00 L 701.50 83.00 L 701.50 85.00 L 700.50 86.00 L 700.50 87.00 L 699.50 88.00 L 699.50 89.00 L 695.00 93.50 L 694.00 93.50 L 693.00 94.50 L 692.00 94.50 L 691.00 95.50 L 690.00 95.50 L 689.00 96.50 L 688.00 96.50 L 687.00 97.50 L 685.00 97.50 L 684.00 98.50 Z
M 504.00 97.50 L 464.00 97.50 L 463.50 97.00 L 463.50 94.00 L 465.00 92.50 L 467.00 92.50 L 468.00 91.50 L 469.00 91.50 L 471.50 89.00 L 471.50 88.00 L 472.50 87.00 L 472.50 79.00 L 473.50 78.00 L 473.50 61.00 L 472.50 60.00 L 472.50 45.00 L 471.50 44.00 L 471.50 43.00 L 469.00 40.50 L 468.00 40.50 L 467.00 39.50 L 466.00 39.50 L 463.50 37.00 L 463.50 36.00 L 465.00 34.50 L 470.00 34.50 L 471.00 33.50 L 475.00 33.50 L 476.00 32.50 L 479.00 32.50 L 480.00 31.50 L 483.00 31.50 L 484.00 30.50 L 493.00 30.50 L 494.50 32.00 L 494.50 34.00 L 493.50 35.00 L 493.50 40.00 L 494.00 40.50 L 496.50 38.00 L 496.50 37.00 L 498.00 35.50 L 499.00 35.50 L 502.00 32.50 L 503.00 32.50 L 504.00 31.50 L 505.00 31.50 L 506.00 30.50 L 508.00 30.50 L 509.00 29.50 L 517.00 29.50 L 518.00 30.50 L 519.00 30.50 L 519.50 31.00 L 519.50 34.00 L 518.50 35.00 L 518.50 38.00 L 517.50 39.00 L 517.50 41.00 L 516.50 42.00 L 516.50 45.00 L 515.50 46.00 L 515.50 47.00 L 514.00 48.50 L 510.00 48.50 L 509.00 47.50 L 505.00 47.50 L 504.00 46.50 L 501.00 46.50 L 500.00 47.50 L 495.00 47.50 L 494.50 48.00 L 494.50 49.00 L 493.50 50.00 L 493.50 52.00 L 492.50 53.00 L 492.50 77.00 L 493.50 78.00 L 493.50 87.00 L 494.50 88.00 L 494.50 90.00 L 497.00 92.50 L 501.00 92.50 L 502.00 93.50 L 503.00 93.50 L 504.50 95.00 L 504.50 97.00 L 504.00 97.50 Z
M 435.50 93.00 L 436.00 92.50 L 437.00 92.50 L 440.50 89.00 L 440.50 88.00 L 442.50 86.00 L 442.50 84.00 L 443.50 83.00 L 443.50 78.00 L 444.50 77.00 L 444.50 54.00 L 443.50 53.00 L 443.50 49.00 L 442.50 48.00 L 442.50 45.00 L 441.50 44.00 L 441.50 43.00 L 440.50 42.00 L 440.50 41.00 L 439.50 40.00 L 439.50 39.00 L 436.00 35.50 L 434.00 35.50 L 433.00 34.50 L 430.00 34.50 L 429.00 35.50 L 427.00 35.50 L 424.50 38.00 L 424.50 40.00 L 423.50 41.00 L 423.50 42.00 L 422.50 43.00 L 422.50 45.00 L 421.50 46.00 L 421.50 50.00 L 420.50 51.00 L 420.50 75.00 L 421.50 76.00 L 421.50 80.00 L 422.50 81.00 L 422.50 84.00 L 423.50 85.00 L 423.50 87.00 L 425.50 89.00 L 425.50 90.00 L 428.00 92.50 L 429.00 92.50 L 430.00 93.50 L 435.00 93.50 L 435.50 93.00 Z
M 549.50 93.00 L 550.00 92.50 L 551.00 92.50 L 552.00 91.50 L 553.00 91.50 L 559.50 85.00 L 559.50 84.00 L 560.50 83.00 L 560.50 81.00 L 561.50 80.00 L 561.50 78.00 L 562.50 77.00 L 562.50 74.00 L 563.50 73.00 L 563.50 54.00 L 562.50 53.00 L 562.50 50.00 L 561.50 49.00 L 561.50 48.00 L 560.50 47.00 L 560.50 46.00 L 558.50 44.00 L 558.50 43.00 L 556.00 40.50 L 555.00 40.50 L 554.00 39.50 L 551.00 39.50 L 550.00 38.50 L 544.00 38.50 L 543.50 39.00 L 543.50 40.00 L 542.50 41.00 L 542.50 43.00 L 543.50 44.00 L 543.50 90.00 L 544.50 91.00 L 544.50 92.00 L 546.00 93.50 L 549.00 93.50 L 549.50 93.00 Z
M 627.50 55.00 L 627.50 45.00 L 626.50 44.00 L 626.50 41.00 L 625.50 40.00 L 625.50 39.00 L 624.50 38.00 L 624.50 37.00 L 624.00 36.50 L 623.00 36.50 L 622.00 35.50 L 617.00 35.50 L 615.00 37.50 L 614.00 37.50 L 613.50 38.00 L 613.50 39.00 L 612.50 40.00 L 612.50 41.00 L 611.50 42.00 L 611.50 44.00 L 610.50 45.00 L 610.50 47.00 L 609.50 48.00 L 609.50 50.00 L 608.50 51.00 L 608.50 54.00 L 610.00 55.50 L 627.00 55.50 L 627.50 55.00 Z"/>
  </g>
</svg>
