<?xml version="1.0" encoding="UTF-8"?>
<svg xmlns="http://www.w3.org/2000/svg" 
     width="512" 
     height="512" 
     viewBox="0 0 512 512" 
     fill="#FF8800">
  <path d="M459.5 510.5c-20.6-3.7-45.9-14.7-65.5-28.3-3.6-2.5-18.9-16.8-34-31.7l-27.5-27.3-18.2 4.1-18.1 4.1 3.9 4.4c3.3 3.8 3.9 5.2 3.9 9 0 4.3-.4 4.8-8.7 13.4-9.6 9.8-12.5 11.8-17.4 11.8-2.8 0-5.1-1.8-17.1-13.7l-13.8-13.7-9.3 1.8c-5 1.1-10.7 2.3-12.6 2.8l-3.3 1 3.3 3.4c2.8 2.9 3.4 4.3 3.4 8 0 4.4-.3 4.7-10.6 14.9-14.9 14.8-14.9 14.8-33.5-3.7l-12.2-12.1-63.3 14.3c-34.9 7.9-66.8 15.1-71 16l-7.7 1.7-15.1-15.1-15.2-15.2 119-68.3 119-68.4-2.2-2.7c-1.2-1.5-11.5-12.8-22.8-25.1-37.6-40.8-77.8-86.7-105.4-120.4-7.1-8.7-13.3-16.2-13.6-16.7-.3-.4-15.8 1.9-34.5 5.2-18.6 3.2-34.8 6.1-36 6.3-1.7.3-3.9-2.3-12-13.6-5.4-7.7-10.2-14.5-10.6-15.2-.4-.7 8.6-8.3 24.3-20.4 13.7-10.6 24.9-19.7 24.9-20.2 0-.4-3.8-6.6-8.4-13.6-27-41.3-36.6-67.2-27.6-74.5 3.1-2.5 12-2.3 20.1.3 12.8 4.2 30.5 13.7 53.2 28.5 7 4.6 13.2 8.4 13.6 8.4.5 0 9.5-11.2 20.2-24.9 12.6-16.3 19.7-24.8 20.5-24.3.7.4 7.5 5.2 15.2 10.7 9.2 6.6 13.8 10.4 13.6 11.5-.2.8-3.1 17-6.4 35.8l-6 34.4 2.7 2.1c23.7 18.5 85.3 72 127.3 110.5 15.5 14.1 29.8 27.2 31.9 29l3.8 3.2 68.4-119 68.3-119.1 15.2 15.2c14.7 14.7 15.1 15.2 14.4 18.3-.5 1.7-7.7 33.6-16.1 70.9l-15.2 67.8 13.2 13.3c12.4 12.6 13.1 13.5 13.1 17.3 0 5-3 9.3-12.8 18.5-9.8 9.2-14.1 9.8-21.4 3.1l-2.6-2.5-1 3.3c-.5 1.9-1.7 7.6-2.8 12.6l-1.8 9.3 13.7 13.8c18 18.2 18.1 18.7 1.9 34.5-8.6 8.3-9.1 8.7-13.4 8.7-3.8 0-5.2-.6-9-3.9l-4.4-3.9-4.1 18.1-4.1 18.2 27.7 28c22.4 22.5 29 29.9 34 37.5 22.5 34.5 32.8 75.8 23.7 95.6-1.5 3.2-3.9 7.2-5.4 8.7-8 8.5-24.9 11.7-43.7 8.2z"/>
</svg>
