<svg width="574" height="157" viewBox="0 0 574 157" fill="none" xmlns="http://www.w3.org/2000/svg">
<path d="M195.869 130.942V142.494H193.338V137.513H188.617V142.494H186.086V130.942H188.617V135.29H193.338V130.942H195.869ZM203.336 130.666C206.711 130.666 208.998 133.116 208.998 136.734C208.998 140.336 206.711 142.77 203.32 142.77C199.896 142.77 197.609 140.352 197.609 136.734C197.609 133.068 199.88 130.666 203.336 130.666ZM203.303 132.743C201.389 132.743 200.172 134.284 200.172 136.686C200.172 139.168 201.373 140.661 203.336 140.677C205.25 140.677 206.435 139.152 206.435 136.686C206.435 134.252 205.234 132.743 203.303 132.743ZM210.723 130.942H216.191C218.219 130.942 219.874 131.802 219.874 133.846C219.874 134.966 219.241 135.81 218.3 136.231C219.501 136.572 220.41 137.448 220.41 139.054C220.41 141.31 218.674 142.494 216.499 142.494H210.723V130.942ZM213.19 132.905V135.615H215.493C216.418 135.615 217.408 135.436 217.408 134.268C217.408 133.1 216.467 132.905 215.493 132.905H213.19ZM213.19 137.335V140.482H215.737C216.824 140.482 217.878 140.271 217.878 138.908C217.878 137.513 216.743 137.335 215.607 137.335H213.19ZM230.892 138.779C230.892 141.326 229.156 142.494 226.658 142.494H222.163V130.942H224.678V135.096H226.788C229.108 135.096 230.892 136.264 230.892 138.779ZM228.426 138.746C228.426 137.529 227.583 137.091 226.447 137.091H224.678V140.417H226.463C227.68 140.417 228.426 139.979 228.426 138.746ZM232.125 130.942H234.657V142.494H232.125V130.942ZM245.547 130.942V133.019H239.398V135.534H245.044V137.529H239.398V140.369H245.661V142.494H236.883V130.942H245.547ZM260.502 130.942V133.1H257.03V142.494H254.483V133.1H251.011V130.942H260.502ZM266.777 130.666C270.152 130.666 272.44 133.116 272.44 136.734C272.44 140.336 270.152 142.77 266.761 142.77C263.338 142.77 261.05 140.352 261.05 136.734C261.05 133.068 263.321 130.666 266.777 130.666ZM266.745 132.743C264.83 132.743 263.613 134.284 263.613 136.686C263.613 139.168 264.814 140.661 266.777 140.677C268.692 140.677 269.876 139.152 269.876 136.686C269.876 134.252 268.676 132.743 266.745 132.743ZM277.832 138.049C275.236 138.049 273.694 136.978 273.694 134.009V130.942H276.225V134.041C276.225 135.436 276.728 135.939 278.026 135.939C278.724 135.939 279.941 135.745 280.314 135.68V130.942H282.845V142.494H280.314V137.724C279.762 137.838 278.513 138.049 277.832 138.049ZM295.273 130.942L290.746 135.501L295.695 142.494H292.515L289.01 137.302L287.534 138.762V142.494H285.035V130.942H287.534V135.745L292.077 130.942H295.273ZM306.495 130.942V142.494H303.964V134.479H303.916L299.567 142.494H296.712V130.942H299.243V138.941H299.292L303.64 130.942H306.495ZM323.037 130.942V142.494H320.506V137.513H315.785V142.494H313.253V130.942H315.785V135.29H320.506V130.942H323.037ZM331.023 130.926L335.42 142.494H332.759L331.85 139.914H327.551L326.61 142.494H324.014L328.411 130.926H331.023ZM331.234 138.065L329.709 133.765L328.167 138.065H331.234ZM351.172 130.942L346.646 135.501L351.594 142.494H348.414L344.91 137.302L343.433 138.762V142.494H340.935V130.942H343.433V135.745L347.976 130.942H351.172ZM358.355 130.926L362.752 142.494H360.091L359.182 139.914H354.883L353.942 142.494H351.346L355.743 130.926H358.355ZM358.566 138.065L357.041 133.765L355.499 138.065H358.566ZM363.734 130.942H368.715C371.214 130.942 372.95 132.11 372.95 134.658C372.95 137.172 371.165 138.341 368.845 138.341H366.249V142.494H363.734V130.942ZM366.249 133.019V136.345H368.504C369.64 136.345 370.484 135.972 370.484 134.69C370.484 133.457 369.64 133.019 368.521 133.019H366.249ZM383.123 130.942V133.1H379.651V142.494H377.103V133.1H373.631V130.942H383.123ZM393.123 130.942V133.019H386.973V135.534H392.62V137.529H386.973V140.369H393.236V142.494H384.459V130.942H393.123ZM399.479 130.942H404.947C406.975 130.942 408.63 131.802 408.63 133.846C408.63 134.966 407.997 135.81 407.056 136.231C408.256 136.572 409.165 137.448 409.165 139.054C409.165 141.31 407.429 142.494 405.255 142.494H399.479V130.942ZM401.945 132.905V135.615H404.249C405.174 135.615 406.163 135.436 406.163 134.268C406.163 133.1 405.222 132.905 404.249 132.905H401.945ZM401.945 137.335V140.482H404.492C405.579 140.482 406.634 140.271 406.634 138.908C406.634 137.513 405.498 137.335 404.362 137.335H401.945ZM416.662 130.926L421.059 142.494H418.399L417.49 139.914H413.19L412.249 142.494H409.653L414.05 130.926H416.662ZM416.873 138.065L415.348 133.765L413.807 138.065H416.873ZM421.993 142.494V130.942H424.525V140.336H428.37V130.942H430.901V140.336H434.746V130.942H437.277V142.494H421.993ZM448.135 130.942V133.019H441.986V135.534H447.632V137.529H441.986V140.369H448.248V142.494H439.471V130.942H448.135ZM458.039 130.942V133.1H452.523V142.494H449.991V130.942H458.039ZM464.532 130.666C467.907 130.666 470.195 133.116 470.195 136.734C470.195 140.336 467.907 142.77 464.516 142.77C461.093 142.77 458.805 140.352 458.805 136.734C458.805 133.068 461.077 130.666 464.532 130.666ZM464.5 132.743C462.585 132.743 461.369 134.284 461.369 136.686C461.369 139.168 462.569 140.661 464.532 140.677C466.447 140.677 467.631 139.152 467.631 136.686C467.631 134.252 466.431 132.743 464.5 132.743ZM478.999 135.096H482.017C484.337 135.096 486.122 136.264 486.122 138.779C486.122 141.326 484.386 142.494 481.887 142.494H476.484V130.942H485.051V133.035H478.999V135.096ZM483.656 138.746C483.656 137.529 482.812 137.091 481.676 137.091H478.999V140.417H481.692C482.909 140.417 483.656 139.979 483.656 138.746ZM497.659 130.942V142.494H495.128V134.479H495.079L490.731 142.494H487.876V130.942H490.407V138.941H490.455L494.804 130.942H497.659ZM508.679 138.941C508.679 141.18 506.716 142.754 504.136 142.754C501.005 142.754 499.155 141.245 499.123 138.633H501.638C501.686 140.19 502.773 140.807 504.136 140.807C505.321 140.807 506.132 140.012 506.132 138.957C506.132 137.643 505.077 137.335 503.958 137.335H503.082V135.615C503.276 135.631 503.617 135.631 503.763 135.631C505.158 135.631 505.856 135.063 505.856 134.057C505.856 133.165 505.158 132.662 504.12 132.662C502.871 132.662 502.076 133.262 501.978 134.382H499.577C499.626 131.802 501.703 130.699 504.136 130.699C506.473 130.699 508.241 131.964 508.241 133.895C508.241 135.047 507.527 135.988 506.489 136.215C507.738 136.41 508.679 137.464 508.679 138.941ZM520.222 130.942V142.494H517.691V137.513H512.969V142.494H510.438V130.942H512.969V135.29H517.691V130.942H520.222ZM531.128 130.942V133.019H524.979V135.534H530.625V137.529H524.979V140.369H531.242V142.494H522.464V130.942H531.128ZM543.304 138.032C543.044 140.855 541.292 142.77 538.128 142.77C534.77 142.77 532.547 140.352 532.547 136.702C532.547 133.343 534.689 130.666 538.226 130.666C541 130.666 543.028 132.419 543.223 134.804H540.74C540.481 133.538 539.54 132.792 538.177 132.792C535.954 132.792 535.094 134.787 535.094 136.718C535.094 139.103 536.279 140.628 538.144 140.628C539.67 140.628 540.578 139.72 540.789 138.032H543.304ZM550.754 130.926L555.151 142.494H552.49L551.582 139.914H547.282L546.341 142.494H543.745L548.142 130.926H550.754ZM550.965 138.065L549.44 133.765L547.899 138.065H550.965Z" fill="white"/>
<g filter="url(#filter0_d_100_3394)">
<path d="M553.205 46.0619V57.4552H521.307V70.6615H550.579V81.1796H521.307V96.2769H553.877V107.67H508.022V46.0619H553.205ZM484.095 62.5033C483.298 61.2061 482.313 60.0808 481.141 59.0962C479.953 58.1116 478.625 57.3614 477.124 56.8144C475.624 56.2674 474.061 56.0017 472.436 56.0017C469.451 56.0017 466.903 56.5956 464.825 57.7678C462.73 58.9556 461.042 60.5341 459.745 62.5189C458.448 64.5038 457.51 66.7543 456.917 69.2861C456.323 71.818 456.026 74.4436 456.026 77.1318C456.026 79.8199 456.323 82.2423 456.917 84.6804C457.51 87.1341 458.448 89.3221 459.745 91.2757C461.042 93.2293 462.73 94.8078 464.825 95.98C466.903 97.1521 469.451 97.746 472.436 97.746C476.499 97.746 479.672 96.4801 481.954 93.9482C484.235 91.4164 485.626 88.0875 486.142 83.9459H499.005C498.661 87.8062 497.786 91.2757 496.379 94.3859C494.972 97.496 493.113 100.137 490.8 102.325C488.487 104.513 485.783 106.186 482.673 107.326C479.562 108.483 476.155 109.046 472.436 109.046C467.81 109.046 463.652 108.217 459.948 106.592C456.26 104.951 453.134 102.7 450.603 99.8246C448.071 96.949 446.117 93.5732 444.773 89.6816C443.413 85.8057 442.741 81.6172 442.741 77.1318C442.741 72.6463 443.413 68.2546 444.773 64.3162C446.133 60.3778 448.071 56.9395 450.603 54.0013C453.134 51.0631 456.26 48.7656 459.948 47.0934C463.637 45.4211 467.794 44.5928 472.436 44.5928C475.765 44.5928 478.906 45.0773 481.876 46.0619C484.829 47.0465 487.486 48.4687 489.831 50.3285C492.175 52.204 494.097 54.517 495.629 57.2677C497.16 60.0339 498.114 63.1909 498.504 66.7543H485.642C485.423 65.207 484.908 63.7848 484.11 62.4876M395.855 46.0619L421.064 87.3998H421.236V46.0619H433.677V107.67H420.392L395.261 66.4261H395.089V107.67H382.649V46.0619H395.855ZM373.006 46.0619V57.4552H341.108V70.6615H370.38V81.1796H341.108V96.2769H373.678V107.67H327.823V46.0619H373.006ZM316.149 107.67H302.864V46.0619H316.149V107.67ZM274.357 46.0619C277.061 46.0619 279.499 46.5151 281.672 47.4059C283.844 48.2968 285.704 49.5158 287.251 51.0787C288.798 52.6259 289.986 54.4389 290.799 56.4706C291.612 58.518 292.034 60.706 292.034 63.0659C292.034 66.6918 291.283 69.8331 289.799 72.4744C288.298 75.1156 285.86 77.1318 282.484 78.5071V78.679C284.125 79.1479 285.469 79.8511 286.548 80.7889C287.611 81.7422 288.486 82.8675 289.173 84.149C289.846 85.4462 290.346 86.8684 290.658 88.4157C290.971 89.9629 291.174 91.5258 291.299 93.073C291.362 94.0576 291.408 95.1985 291.471 96.527C291.533 97.8554 291.627 99.1995 291.768 100.575C291.909 101.95 292.127 103.263 292.44 104.498C292.752 105.732 293.221 106.779 293.831 107.655H280.546C279.812 105.701 279.359 103.372 279.187 100.669C279.015 97.9648 278.765 95.3705 278.421 92.9011C277.968 89.6816 277.014 87.3217 275.545 85.8213C274.076 84.321 271.685 83.5708 268.356 83.5708H255.072V107.639H241.787V46.0619H274.357ZM269.622 73.9279C272.67 73.9279 274.951 73.2402 276.467 71.8649C277.999 70.4896 278.749 68.239 278.749 65.1289C278.749 62.0188 277.983 59.9714 276.467 58.6117C274.951 57.2677 272.654 56.58 269.622 56.58H255.072V73.9279H269.622ZM232.144 46.0619V57.4552H200.246V70.6615H229.519V81.1796H200.246V96.2769H232.816V107.67H186.962V46.0619H232.144ZM157.783 46.0619C161.565 46.0619 164.785 46.6245 167.426 47.7498C170.083 48.875 172.239 50.3598 173.896 52.1883C175.553 54.0325 176.772 56.1268 177.538 58.4867C178.303 60.8466 178.678 63.2847 178.678 65.8166C178.678 68.3484 178.303 70.724 177.538 73.1152C176.772 75.5064 175.568 77.6162 173.896 79.4604C172.224 81.3046 170.067 82.7893 167.426 83.899C164.769 85.0243 161.565 85.5869 157.783 85.5869H143.826V107.67H130.542V46.0619H157.783ZM154.141 75.0531C155.657 75.0531 157.126 74.9437 158.533 74.7093C159.94 74.4749 161.19 74.0373 162.253 73.3652C163.315 72.7088 164.191 71.7711 164.831 70.5677C165.472 69.3643 165.8 67.7702 165.8 65.8166C165.8 63.863 165.472 62.2845 164.831 61.0654C164.175 59.862 163.315 58.9243 162.253 58.2679C161.174 57.6115 159.94 57.1583 158.533 56.9238C157.126 56.6894 155.657 56.58 154.141 56.58H143.826V75.0375H154.141V75.0531ZM69.4494 46.0619H84.8437L96.6903 65.7384L108.959 46.0619H123.509L104.13 75.4907L125.197 107.67H109.381L96.1902 86.3527L82.7338 107.67H67.8397L88.9072 75.397L69.4494 46.0619ZM64.4639 46.0619V57.4552H32.5657V70.6615H61.8382V81.1796H32.5657V96.2769H65.1359V107.67H19.2812V46.0619H64.4639Z" fill="white"/>
</g>
<path d="M92.7599 8.83711C90.8054 8.83711 89.2378 9.36255 87.6095 10.1651C87.6239 5.54882 87.6817 1.52145 87.7943 0L78.3047 1.83325V2.6878L79.2285 2.80617C80.5537 2.98805 81.0618 3.76176 81.2177 5.52861C81.515 8.91217 81.4746 27.0772 81.2177 29.9902C83.7727 30.5618 86.5384 31.0064 89.307 31.0064C96.8392 31.0064 101.369 26.3497 101.369 18.9878C101.369 13.0839 97.688 8.84 92.7628 8.84M89.4543 29.4994C88.9144 29.4994 88.2187 29.4128 87.8347 29.3435C87.6846 27.3024 87.5922 18.8983 87.6037 11.5567C88.4756 11.2622 89.0588 11.1929 89.818 11.1929C92.936 11.1929 94.6855 14.7901 94.6913 19.3314C94.7029 25.114 92.5405 29.4994 89.4514 29.4994" fill="white"/>
<path d="M43.9758 0.669635H19.0234V1.87063L20.3515 2.04962C22.254 2.32677 22.9873 3.50467 23.2096 6.19247C23.6369 11.34 23.5791 20.5438 23.2096 24.9724C22.9873 27.6602 22.254 28.841 20.3515 29.1181L19.0234 29.2971V30.4981H35.0578V29.2971L33.3747 29.1181C31.4722 28.841 30.7389 27.6602 30.5166 24.9724C30.3636 23.1449 30.2654 20.0587 30.2308 16.4384L33.5364 16.5424C35.7421 16.6145 36.6659 18.2486 37.1971 20.6737H38.4327V10.5778H37.1971C36.6659 13 35.7421 14.6341 33.5364 14.7091L30.2192 14.8159C30.1961 10.0466 30.2856 5.46494 30.5166 2.71652H35.4418C39.2873 2.71652 41.34 5.15892 42.6304 9.4721L44.1115 9.05926L43.9729 0.666748L43.9758 0.669635Z" fill="white"/>
<path d="M51.7445 8.59741C58.8379 8.59741 62.36 13.4043 62.36 19.7441C62.36 26.084 58.3818 31.0063 51.2913 31.0063C44.2008 31.0063 40.6758 26.1995 40.6758 19.8596C40.6758 13.5198 44.6541 8.59741 51.7445 8.59741ZM51.375 9.97451C48.2397 9.97451 47.3621 14.2155 47.3621 19.8048C47.3621 25.394 48.7507 29.635 51.6579 29.635C54.7932 29.635 55.6709 25.3969 55.6709 19.8048C55.6709 14.2126 54.2822 9.97451 51.375 9.97451Z" fill="white"/>
<path d="M108.985 18.7914C108.838 24.0255 111.488 27.8681 116.561 27.8681C118.792 27.8681 119.996 27.3138 121.344 26.2832L121.968 27.0309C120.496 29.072 117.424 31.0063 113.347 31.0063C106.955 31.0063 102.434 26.4795 102.426 19.9981C102.417 14.1318 106.124 8.61182 113.437 8.61182C119.384 8.61182 122.222 13.0232 122.254 18.7914M109.034 17.2988L115.686 17.1573C115.718 14.2155 115.247 10.0062 112.857 10.0062C110.466 10.0062 109.092 13.9874 109.034 17.2988Z" fill="white"/>
<path d="M138.612 9.7551C137.033 9.03335 134.68 8.59741 132.203 8.59741C126.868 8.59741 123.631 11.724 123.631 15.3732C123.631 19.0224 126.065 20.6073 129.425 21.8083C133.046 23.1017 133.998 24.1093 133.998 25.7808C133.998 27.4524 132.731 29.1153 130.465 29.1153C127.789 29.1153 125.768 27.539 124.214 23.1999L123.129 23.4828L123.319 29.687C125.086 30.4029 128.103 31.0063 130.814 31.0063C136.467 31.0063 139.899 28.2492 139.899 23.7686C139.899 20.7603 138.433 19.1119 134.726 17.677C130.719 16.1267 129.33 15.148 129.33 13.2946C129.33 11.4411 130.566 10.142 132.281 10.142C134.853 10.142 136.611 11.7385 137.766 15.4829L138.852 15.2L138.612 9.7551Z" fill="white"/>
<path d="M80.194 9.20075C77.8007 7.7688 73.4385 8.44436 71.227 13.5284L71.3338 8.58293L61.8789 10.4162V11.2707L62.8027 11.3891C64.125 11.571 64.636 12.3447 64.789 14.1115C65.0864 17.4951 65.0459 23.5463 64.789 26.4564C64.6331 28.2232 64.125 28.9969 62.8027 29.1817L61.8789 29.3001V30.501H75.0465V29.3001L73.3288 29.1817C72.0065 28.9998 71.4955 28.2232 71.3396 26.4564C71.1058 23.783 71.0509 18.4622 71.2732 14.9892C71.9083 13.9441 75.0003 13.0982 77.8758 15.0267L80.194 9.19786V9.20075Z" fill="white"/>
<defs>
<filter id="filter0_d_100_3394" x="-0.00075531" y="31.9597" width="573.162" height="103.017" filterUnits="userSpaceOnUse" color-interpolation-filters="sRGB">
<feFlood flood-opacity="0" result="BackgroundImageFix"/>
<feColorMatrix in="SourceAlpha" type="matrix" values="0 0 0 0 0 0 0 0 0 0 0 0 0 0 0 0 0 0 127 0" result="hardAlpha"/>
<feOffset dy="6.64897"/>
<feGaussianBlur stdDeviation="9.641"/>
<feComposite in2="hardAlpha" operator="out"/>
<feColorMatrix type="matrix" values="0 0 0 0 0 0 0 0 0 0 0 0 0 0 0 0 0 0 0.25 0"/>
<feBlend mode="normal" in2="BackgroundImageFix" result="effect1_dropShadow_100_3394"/>
<feBlend mode="normal" in="SourceGraphic" in2="effect1_dropShadow_100_3394" result="shape"/>
</filter>
</defs>
</svg>
