<?xml version="1.0" standalone="no"?>
<!DOCTYPE svg PUBLIC "-//W3C//DTD SVG 20010904//EN"
 "http://www.w3.org/TR/2001/REC-SVG-20010904/DTD/svg10.dtd">
<svg version="1.0" xmlns="http://www.w3.org/2000/svg"
 width="512.000000pt" height="512.000000pt" viewBox="0 0 512.000000 512.000000"
 preserveAspectRatio="xMidYMid meet">

<g transform="translate(0.000000,512.000000) scale(0.100000,-0.100000)"
fill="#FF8800" stroke="none">
<path d="M4595 5105 c-206 -37 -459 -147 -655 -283 -36 -25 -189 -168 -340
-317 l-275 -273 -182 41 -181 41 39 44 c33 38 39 52 39 90 0 43 -4 48 -87 134
-96 98 -125 118 -174 118 -28 0 -51 -18 -171 -137 l-138 -137 -93 18 c-50 11
-107 23 -126 28 l-33 10 33 34 c28 29 34 43 34 80 0 44 -3 47 -106 149 -149
148 -149 148 -335 -37 l-122 -121 -633 143 c-349 79 -668 151 -710 160 l-77
17 -151 -151 -152 -152 1190 -683 1190 -684 -22 -27 c-12 -15 -115 -128 -228
-251 -376 -408 -778 -867 -1054 -1204 -71 -87 -133 -162 -136 -167 -3 -4 -158
19 -345 52 -186 32 -348 61 -360 63 -17 3 -39 -23 -120 -136 -54 -77 -102
-145 -106 -152 -4 -7 86 -83 243 -204 137 -106 249 -197 249 -202 0 -4 -38
-66 -84 -136 -270 -413 -366 -672 -276 -745 31 -25 120 -23 201 3 128 42 305
137 532 285 70 46 132 84 136 84 5 0 95 -112 202 -249 126 -163 197 -248 205
-243 7 4 75 52 152 107 92 66 138 104 136 115 -2 8 -31 170 -64 358 l-60 344
27 21 c237 185 853 720 1273 1105 155 141 298 272 319 290 l38 32 684 -1190
683 -1191 152 152 c147 147 151 152 144 183 -5 17 -77 336 -161 709 l-152 678
132 133 c124 126 131 135 131 173 0 50 -30 93 -128 185 -98 92 -141 98 -214
31 l-26 -25 -10 33 c-5 19 -17 76 -28 126 l-18 93 137 138 c180 182 181 187
19 345 -86 83 -91 87 -134 87 -38 0 -52 -6 -90 -39 l-44 -39 -41 181 -41 182
277 280 c224 225 290 299 340 375 225 345 328 758 237 956 -15 32 -39 72 -54
87 -80 85 -249 117 -437 82z"/>
</g>
</svg>
