<svg width="153" height="40" viewBox="0 0 153 40" fill="none" xmlns="http://www.w3.org/2000/svg">
<path d="M93.1384 11.1622C90.6696 11.1622 88.6895 11.8259 86.6329 12.8397C86.6511 7.00875 86.724 1.92175 86.8662 0L74.8799 2.31559V3.39498L76.0468 3.54449C77.7206 3.77422 78.3624 4.75151 78.5593 6.98322C78.9349 11.257 78.8838 34.2014 78.5593 37.8808C81.7865 38.6028 85.28 39.1644 88.777 39.1644C98.291 39.1644 104.013 33.2824 104.013 23.9836C104.013 16.5264 99.3631 11.1659 93.142 11.1659M88.963 37.2609C88.2811 37.2609 87.4023 37.1515 86.9173 37.064C86.7277 34.4858 86.611 23.8706 86.6256 14.5973C87.7268 14.2254 88.4634 14.1378 89.4225 14.1378C93.3608 14.1378 95.5707 18.6815 95.5779 24.4176C95.5925 31.7217 92.8612 37.2609 88.9594 37.2609" fill="white"/>
<path d="M31.5175 0.846054H0V2.36304L1.67743 2.58913C4.08054 2.9392 5.00677 4.42701 5.28756 7.82199C5.82725 14.3239 5.75432 25.9492 5.28756 31.5431C5.00677 34.938 4.08054 36.4295 1.67743 36.7796L0 37.0057V38.5226H20.2532V37.0057L18.1272 36.7796C15.7241 36.4295 14.7979 34.938 14.5171 31.5431C14.3238 29.2348 14.1998 25.3366 14.1561 20.7637L18.3314 20.895C21.1174 20.9862 22.2843 23.0502 22.9553 26.1133H24.516V13.3612H22.9553C22.2843 16.4206 21.1174 18.4846 18.3314 18.5794L14.1415 18.7144C14.1123 12.6902 14.2254 6.90304 14.5171 3.43149H20.7382C25.5954 3.43149 28.1882 6.51651 29.8182 11.9645L31.6889 11.4431L31.5139 0.842407L31.5175 0.846054Z" fill="white"/>
<path d="M41.3306 10.8599C50.2903 10.8599 54.7392 16.9315 54.7392 24.9394C54.7392 32.9473 49.7142 39.1648 40.7581 39.1648C31.8021 39.1648 27.3496 33.0932 27.3496 25.0853C27.3496 17.0774 32.3746 10.8599 41.3306 10.8599ZM40.8639 12.5993C36.9037 12.5993 35.7951 17.9562 35.7951 25.016C35.7951 32.0758 37.5491 37.4326 41.2212 37.4326C45.1814 37.4326 46.29 32.0794 46.29 25.016C46.29 17.9525 44.536 12.5993 40.8639 12.5993Z" fill="white"/>
<path d="M113.631 23.7357C113.445 30.347 116.792 35.2006 123.199 35.2006C126.018 35.2006 127.539 34.5004 129.242 33.1986L130.029 34.1431C128.17 36.7212 124.29 39.1644 119.141 39.1644C111.067 39.1644 105.357 33.4466 105.346 25.26C105.335 17.8501 110.017 10.8778 119.254 10.8778C126.766 10.8778 130.35 16.4498 130.391 23.7357M113.693 21.8504L122.095 21.6717C122.135 17.9558 121.54 12.6391 118.521 12.6391C115.501 12.6391 113.766 17.6678 113.693 21.8504Z" fill="white"/>
<path d="M151.051 12.3219C149.056 11.4103 146.084 10.8596 142.955 10.8596C136.216 10.8596 132.129 14.8089 132.129 19.4182C132.129 24.0275 135.203 26.0294 139.447 27.5464C144.02 29.1801 145.224 30.4528 145.224 32.5641C145.224 34.6755 143.623 36.776 140.76 36.776C137.38 36.776 134.827 34.7849 132.865 29.3041L131.494 29.6615L131.735 37.498C133.967 38.4023 137.777 39.1645 141.201 39.1645C148.341 39.1645 152.677 35.682 152.677 30.0225C152.677 26.2227 150.825 24.1405 146.142 22.3282C141.081 20.3699 139.327 19.1337 139.327 16.7926C139.327 14.4515 140.888 12.8105 143.054 12.8105C146.303 12.8105 148.524 14.8271 149.982 19.5567L151.353 19.1994L151.051 12.3219Z" fill="white"/>
<path d="M77.2609 11.6218C74.2379 9.8131 68.7279 10.6664 65.9346 17.088L66.0695 10.8414L54.127 13.157V14.2364L55.2939 14.3859C56.964 14.6157 57.6094 15.5929 57.8027 17.8247C58.1783 22.0985 58.1273 29.7417 57.8027 33.4175C57.6058 35.6492 56.964 36.6265 55.2939 36.8599L54.127 37.0094V38.5264H70.7591V37.0094L68.5893 36.8599C66.9192 36.6301 66.2738 35.6492 66.0768 33.4175C65.7815 30.0407 65.7122 23.3201 65.993 18.9332C66.7952 17.6132 70.7007 16.5447 74.3327 18.9806L77.2609 11.6182V11.6218Z" fill="white"/>
</svg>
