<svg width="40" height="11" viewBox="0 0 40 11" fill="none" xmlns="http://www.w3.org/2000/svg">
<path d="M24.0956 2.8878C23.457 2.8878 22.9447 3.05951 22.4126 3.32178C22.4173 1.81325 22.4362 0.497182 22.473 0L19.3719 0.599071V0.878323L19.6738 0.917003C20.1069 0.976438 20.2729 1.22927 20.3239 1.80665C20.421 2.91233 20.4078 8.84832 20.3239 9.80023C21.1588 9.98703 22.0626 10.1323 22.9673 10.1323C25.4287 10.1323 26.9089 8.61058 26.9089 6.20486C26.9089 4.27557 25.7061 2.88875 24.0966 2.88875M23.0154 9.63985C22.839 9.63985 22.6116 9.61155 22.4862 9.58891C22.4371 8.92191 22.4069 6.17562 22.4107 3.7765C22.6956 3.68028 22.8862 3.65763 23.1343 3.65763C24.1532 3.65763 24.7249 4.83313 24.7268 6.31713C24.7306 8.2068 24.0239 9.63985 23.0145 9.63985" fill="white"/>
<path d="M8.15397 0.218778H0V0.61124L0.433973 0.669732C1.05569 0.7603 1.29531 1.14522 1.36796 2.02354C1.50758 3.70565 1.48871 6.71327 1.36796 8.16048C1.29531 9.0388 1.05569 9.42466 0.433973 9.51523L0 9.57372V9.96618H5.23975V9.57372L4.68973 9.51523C4.06802 9.42466 3.82839 9.0388 3.75575 8.16048C3.70575 7.56329 3.67367 6.55478 3.66235 5.37173L4.74257 5.40569C5.46334 5.42928 5.76523 5.96325 5.93882 6.75573H6.3426V3.45659H5.93882C5.76523 4.24812 5.46334 4.78209 4.74257 4.80662L3.65858 4.84153C3.65103 3.283 3.68028 1.7858 3.75575 0.887662H5.36522C6.62186 0.887662 7.29263 1.68579 7.71433 3.09526L8.19831 2.96035L8.15302 0.217834L8.15397 0.218778Z" fill="white"/>
<path d="M10.6934 2.80969C13.0113 2.80969 14.1623 4.38048 14.1623 6.45223C14.1623 8.52398 12.8623 10.1325 10.5452 10.1325C8.22821 10.1325 7.07629 8.56172 7.07629 6.48997C7.07629 4.41822 8.37632 2.80969 10.6934 2.80969ZM10.5726 3.2597C9.54805 3.2597 9.26125 4.64559 9.26125 6.47204C9.26125 8.2985 9.71504 9.68438 10.6651 9.68438C11.6896 9.68438 11.9764 8.29945 11.9764 6.47204C11.9764 4.64464 11.5226 3.2597 10.5726 3.2597Z" fill="white"/>
<path d="M29.3976 6.14095C29.3495 7.85137 30.2155 9.10706 31.8731 9.10706C32.6024 9.10706 32.9958 8.92592 33.4364 8.58912L33.6402 8.83346C33.159 9.50046 32.1552 10.1326 30.8231 10.1326C28.7344 10.1326 27.257 8.65327 27.2542 6.5353C27.2513 4.61827 28.4627 2.81445 30.8524 2.81445C32.7958 2.81445 33.7232 4.256 33.7336 6.14095M29.4136 5.6532L31.5873 5.60697C31.5977 4.64563 31.4439 3.27012 30.6627 3.27012C29.8816 3.27012 29.4325 4.5711 29.4136 5.6532Z" fill="white"/>
<path d="M39.0793 3.188C38.5633 2.95215 37.7944 2.80969 36.9849 2.80969C35.2415 2.80969 34.1839 3.83141 34.1839 5.0239C34.1839 6.21638 34.9792 6.73431 36.0774 7.12678C37.2604 7.54943 37.5717 7.87868 37.5717 8.42492C37.5717 8.97116 37.1576 9.51457 36.417 9.51457C35.5425 9.51457 34.8821 8.99946 34.3745 7.5815L34.0198 7.67396L34.082 9.70137C34.6594 9.93533 35.6453 10.1325 36.5312 10.1325C38.3784 10.1325 39.5001 9.23154 39.5001 7.76736C39.5001 6.78432 39.0208 6.24562 37.8095 5.77674C36.5 5.27013 36.0462 4.95031 36.0462 4.34463C36.0462 3.73896 36.45 3.31442 37.0104 3.31442C37.851 3.31442 38.4255 3.83613 38.8029 5.05975L39.1576 4.96729L39.0793 3.188Z" fill="white"/>
<path d="M19.9881 3.00666C19.206 2.53872 17.7805 2.75948 17.0578 4.42084L17.0927 2.80477L14.0031 3.40384V3.68309L14.3049 3.72177C14.737 3.7812 14.904 4.03404 14.954 4.61141C15.0512 5.7171 15.038 7.6945 14.954 8.64547C14.9031 9.22284 14.737 9.47568 14.3049 9.53606L14.0031 9.57474V9.9672H18.306V9.57474L17.7447 9.53606C17.3126 9.47662 17.1456 9.22284 17.0946 8.64547C17.0182 7.77186 17.0003 6.03314 17.0729 4.89821C17.2805 4.55669 18.2909 4.28027 19.2305 4.91048L19.9881 3.00571V3.00666Z" fill="white"/>
</svg>
